<svg xmlns="http://www.w3.org/2000/svg" width="74.81" height="59.444" viewBox="0 0 74.81 59.444">
  <path id="ico-frequenza-battito" d="M36.562,59.041l-17.6-20.563a1.148,1.148,0,0,1,.13-1.621,1.161,1.161,0,0,1,1.629.129L37.443,56.522,54.188,36.986a1.153,1.153,0,0,1,1.757,1.493L38.321,59.042a1.161,1.161,0,0,1-1.759,0ZM32.815,43.057,26.677,27.065l-2,6.606a1.154,1.154,0,0,1-1.106.818H6.319a1.15,1.15,0,1,1,0-2.3H22.71l2.734-9.013a1.155,1.155,0,0,1,1.065-.817,1.168,1.168,0,0,1,1.121.738l6.044,15.752,6.445-25.194a1.154,1.154,0,0,1,1.056-.865,1.171,1.171,0,0,1,1.145.743l7.063,18.656H67.653a1.151,1.151,0,1,1,0,2.3H48.582a1.154,1.154,0,0,1-1.081-.744l-6.05-15.98L35.013,42.931a1.15,1.15,0,0,1-1.053.864h-.068A1.153,1.153,0,0,1,32.815,43.057Zm40.022-9.052a1.148,1.148,0,0,1,0-1.623,1.18,1.18,0,0,1,1.63,0,1.15,1.15,0,0,1-1.63,1.623Zm-72.492,0A1.138,1.138,0,0,1,0,33.194a1.157,1.157,0,0,1,.345-.82,1.2,1.2,0,0,1,1.63.008,1.15,1.15,0,0,1,0,1.623,1.14,1.14,0,0,1-.815.334A1.141,1.141,0,0,1,.345,34.005Zm61.413-4.042a1.146,1.146,0,0,1-.165-1.618,15.923,15.923,0,0,0,3.463-9.96A16.145,16.145,0,0,0,38.174,6.393a1.156,1.156,0,0,1-1.537,0A16.14,16.14,0,0,0,9.757,18.339a15.664,15.664,0,0,0,3.517,9.992,1.147,1.147,0,0,1-.141,1.621,1.161,1.161,0,0,1-1.629-.141A17.994,17.994,0,0,1,7.447,18.339,18.45,18.45,0,0,1,37.406,4.03,18.457,18.457,0,0,1,67.367,18.385,18.262,18.262,0,0,1,63.384,29.8a1.159,1.159,0,0,1-1.626.165Zm-1.734-10.54A11.022,11.022,0,0,0,53.273,9.284a1.151,1.151,0,1,1,.9-2.117,13.28,13.28,0,0,1,8.161,12.257,1.156,1.156,0,0,1-2.312,0Z" fill="#394c6d"/>
</svg>
