<svg id="logo-homecheck-mini" xmlns="http://www.w3.org/2000/svg" xmlns:xlink="http://www.w3.org/1999/xlink" width="143.342" height="158.1" viewBox="0 0 143.342 158.1">
  <defs>
    <linearGradient id="linear-gradient" y1="0.5" x2="1" y2="0.5" gradientUnits="objectBoundingBox">
      <stop offset="0" stop-color="#99dc65"/>
      <stop offset="1" stop-color="#67b4d9"/>
    </linearGradient>
    <radialGradient id="radial-gradient" cx="0.55" cy="0.381" r="0.632" gradientTransform="translate(-0.233) scale(1.466 1)" gradientUnits="objectBoundingBox">
      <stop offset="0.01" stop-color="#8c0053"/>
      <stop offset="0.248" stop-color="#850556"/>
      <stop offset="0.57" stop-color="#741460"/>
      <stop offset="0.938" stop-color="#582c70"/>
      <stop offset="1" stop-color="#533174"/>
    </radialGradient>
  </defs>
  <g id="Group_1085" data-name="Group 1085" transform="translate(11.045 24.426)">
    <path id="Path_2424" data-name="Path 2424" d="M285.258,200.958c-5.2-4.343-13.415-11.191-13.218-19.283a50.358,50.358,0,0,0,.793-8.9c0-24.1-17.094-41.8-40.054-46.386a86,86,0,0,1,5.191,29.526c0,.991-.024,1.976-.057,2.959-.007.237-.016.472-.026.708-.04.973-.093,1.944-.164,2.908-.006.069-.013.136-.019.2-.07.911-.159,1.817-.257,2.72-.026.227-.049.453-.077.68-.111.948-.234,1.894-.376,2.831-.018.116-.038.231-.056.348q-.2,1.278-.436,2.543c-.04.212-.078.426-.12.638q-.27,1.386-.581,2.759c-.031.14-.067.278-.1.418q-.287,1.226-.607,2.435c-.051.191-.1.384-.152.573q-.37,1.353-.779,2.688c-.047.154-.1.308-.147.462-.247.79-.508,1.578-.779,2.357-.056.164-.112.33-.17.493q-.464,1.316-.972,2.613c-.061.159-.126.317-.187.474q-.464,1.164-.959,2.311c-.056.131-.111.264-.169.395q-.56,1.28-1.163,2.535c-.075.156-.152.312-.227.469q-.563,1.156-1.155,2.291c-.047.092-.093.184-.14.274q-.658,1.241-1.353,2.458c-.085.148-.171.3-.257.443-.448.774-.906,1.543-1.377,2.3-.026.041-.051.084-.077.126q-.751,1.2-1.54,2.373c-.092.136-.184.273-.278.41q-1.594,2.344-3.335,4.569c-.1.122-.192.244-.288.365q-1.764,2.228-3.671,4.33c-.095.106-.191.211-.287.314q-1.931,2.106-4,4.074l-.277.263q-2.093,1.978-4.319,3.806c-.084.068-.167.138-.252.207q-1.127.916-2.282,1.8c-.02.015-.038.027-.058.044q-1.133.856-2.3,1.676c-.072.049-.145.1-.216.152q-1.2.836-2.419,1.631c-.04.027-.079.051-.119.076q-1.194.772-2.415,1.5c-.052.033-.1.065-.159.1q-1.26.751-2.549,1.458c-.058.031-.116.06-.172.091-.843.46-1.693.906-2.551,1.331-.029.016-.058.031-.086.045q-1.321.658-2.669,1.27c-.074.033-.147.065-.221.1-.893.4-1.791.789-2.7,1.158h0a80.892,80.892,0,0,1-30.6,5.98,114.764,114.764,0,0,0,31.021,3.184,72.97,72.97,0,0,1-1.2,12.323s4.556,4.111,30.094,4.111,29.457-4.111,29.457-4.111c-2.551-10.235,3.243-12.631,15.523-9.923,12.608,2.782,14.63-3.337,12.993-8.9s.386-5.285,2.31-7.975-3.754-6.677-3.754-6.677,6.66-2.429,4.91-4.544c-3.05-3.678.673-5.655,4.331-7.881S291.032,205.779,285.258,200.958Z" transform="translate(-155.274 -126.386)" fill="#11afe6"/>
    <path id="Path_2425" data-name="Path 2425" d="M258.923,139.684a52.364,52.364,0,0,0-26.144-13.3,86,86,0,0,1,5.191,29.526c0,.991-.024,1.976-.057,2.959-.007.237-.016.472-.026.708-.04.973-.093,1.944-.164,2.908-.006.069-.013.136-.019.2-.07.911-.159,1.817-.257,2.72-.026.227-.049.453-.077.68-.111.948-.234,1.894-.376,2.831-.018.116-.038.231-.056.348q-.2,1.278-.436,2.543c-.04.212-.078.426-.12.638q-.27,1.386-.581,2.759c-.031.14-.067.278-.1.418q-.287,1.226-.607,2.435c-.051.191-.1.384-.152.573q-.37,1.353-.779,2.688c-.047.154-.1.308-.147.462-.247.79-.508,1.578-.779,2.357-.056.164-.112.33-.17.493q-.464,1.316-.972,2.613c-.061.159-.126.317-.187.474q-.464,1.164-.959,2.311c-.056.131-.111.264-.169.395q-.56,1.28-1.163,2.535c-.075.156-.152.312-.227.469q-.563,1.156-1.155,2.291c-.047.092-.093.184-.14.274q-.658,1.241-1.353,2.458c-.085.148-.171.3-.257.443-.448.774-.906,1.543-1.377,2.3-.026.041-.051.084-.077.126q-.751,1.2-1.54,2.373c-.092.136-.184.273-.278.41q-1.594,2.344-3.335,4.569c-.1.122-.192.244-.288.365q-1.764,2.228-3.671,4.33c-.095.106-.191.211-.287.314q-1.931,2.106-4,4.074l-.277.263q-2.093,1.978-4.319,3.806c-.084.068-.167.138-.252.207q-1.127.916-2.282,1.8c-.02.015-.038.027-.058.044q-1.133.856-2.3,1.676c-.072.049-.145.1-.216.152q-1.2.836-2.419,1.631c-.04.027-.079.051-.119.076q-1.194.772-2.415,1.5c-.052.033-.1.065-.159.1q-1.26.751-2.549,1.458c-.058.031-.116.06-.172.091-.843.46-1.693.906-2.551,1.331-.029.016-.058.031-.086.045q-1.321.658-2.669,1.27c-.074.033-.147.065-.221.1-.893.4-1.791.789-2.7,1.158a80.892,80.892,0,0,1-30.6,5.98,114.764,114.764,0,0,0,31.021,3.184S279.293,235.514,258.923,139.684Z" transform="translate(-155.274 -126.386)" opacity="0.2" fill="url(#linear-gradient)" style="mix-blend-mode: overlay;isolation: isolate"/>
  </g>
  <g id="Group_1087" data-name="Group 1087" transform="translate(0 0)">
    <path id="Path_2426" data-name="Path 2426" d="M200.471,106.07a13.24,13.24,0,1,1-15.818-10.02A13.24,13.24,0,0,1,200.471,106.07Zm7.073-17.848c7.188,19.85,4.043,35.7-6.742,40.671-11.911,5.493-62.692-4.011-62.692-4.011a77.016,77.016,0,0,1,24.945,9.027c-.04.011-.081.017-.124.029.048-.007.1-.012.144-.018,22.507,13.3,27.46,35.475,28.21,49.128.047,5.139-.922,15.57-9.194,18.166-5.18,1.414-16.173,3.033-26.072-4.6,0,0,15.075,6.293,26.547,1.3-.724-.854-1.417-1.738-2.1-2.614-2.573-3.26-5.72-7.12-9.79-8.26-5.587-1.57-16.635.758-22.27-.027-3.708-.515-9.406-2.549-10.387-6.67a35.739,35.739,0,0,0,48.449,25.586,37.336,37.336,0,0,0,16.844-13.076C238.47,147.346,207.544,88.222,207.544,88.222Z" transform="translate(-138.016 -88.222)" fill="url(#radial-gradient)"/>
    <g id="Group_1086" data-name="Group 1086" transform="translate(0.094 0)" opacity="0.3" style="mix-blend-mode: overlay;isolation: isolate">
      <path id="Path_2427" data-name="Path 2427" d="M200.855,128.893c-11.911,5.493-62.692-4.011-62.692-4.011a77.016,77.016,0,0,1,24.945,9.027c-.04.011-.081.017-.124.029.048-.007.1-.011.144-.018a54.874,54.874,0,0,1,19,18.412c32.991,14.993,34.9-22.03,33.761-41.679A120.971,120.971,0,0,0,207.6,88.222C214.785,108.072,211.64,123.919,200.855,128.893Z" transform="translate(-138.163 -88.222)" fill="#fff"/>
      <path id="Path_2428" data-name="Path 2428" d="M210.866,126.109a13.241,13.241,0,1,0-15.819-10.02A13.24,13.24,0,0,0,210.866,126.109Z" transform="translate(-158.524 -92.442)" fill="#fff"/>
    </g>
  </g>
  <g id="Group_1088" data-name="Group 1088" transform="translate(5.211 52.564)">
    <path id="Path_2429" data-name="Path 2429" d="M186.923,199.056H182v-4.928a2.111,2.111,0,0,0-2.111-2.111h-6.178a2.112,2.112,0,0,0-2.112,2.111v4.928h-4.928a2.112,2.112,0,0,0-2.11,2.111v6.179a2.111,2.111,0,0,0,2.11,2.111H171.6v4.926a2.112,2.112,0,0,0,2.112,2.111h6.178A2.111,2.111,0,0,0,182,214.384v-4.926h4.926a2.112,2.112,0,0,0,2.113-2.111v-6.179A2.113,2.113,0,0,0,186.923,199.056Z" transform="translate(-152.782 -178.151)" fill="#03bbd9"/>
    <path id="Path_2430" data-name="Path 2430" d="M159.5,174.55h-2.939v-2.941a1.259,1.259,0,0,0-1.259-1.258h-3.684a1.26,1.26,0,0,0-1.26,1.258v2.941h-2.939a1.258,1.258,0,0,0-1.258,1.258V179.5a1.259,1.259,0,0,0,1.258,1.26h2.939v2.936a1.259,1.259,0,0,0,1.26,1.26H155.3a1.258,1.258,0,0,0,1.259-1.26v-2.936H159.5a1.26,1.26,0,0,0,1.26-1.26v-3.687A1.258,1.258,0,0,0,159.5,174.55Z" transform="translate(-146.158 -170.351)" fill="#03bbd9"/>
  </g>
</svg>
