<svg xmlns="http://www.w3.org/2000/svg" xmlns:xlink="http://www.w3.org/1999/xlink" width="600" height="400" viewBox="0 0 600 400">
  <defs>
    <linearGradient id="linear-gradient" y1="0.5" x2="1" y2="0.5" gradientUnits="objectBoundingBox">
      <stop offset="0" stop-color="#99dc65"/>
      <stop offset="1" stop-color="#67b4d9"/>
    </linearGradient>
    <radialGradient id="radial-gradient" cx="0.55" cy="0.381" r="0.632" gradientTransform="translate(-0.233) scale(1.466 1)" gradientUnits="objectBoundingBox">
      <stop offset="0.01" stop-color="#8c0053"/>
      <stop offset="0.248" stop-color="#850556"/>
      <stop offset="0.57" stop-color="#741460"/>
      <stop offset="0.938" stop-color="#582c70"/>
      <stop offset="1" stop-color="#533174"/>
    </radialGradient>
    <clipPath id="clip-recupera-password">
      <rect width="600" height="400"/>
    </clipPath>
  </defs>
  <g id="recupera-password" clip-path="url(#clip-recupera-password)">
    <rect width="600" height="400" fill="#394c6d"/>
    <g id="logo" transform="translate(-81.211 -179.333)">
      <g id="Group_1169" data-name="Group 1169" transform="translate(127 276.999)">
        <g id="Group_1089" data-name="Group 1089" transform="translate(2.346 0)">
          <g id="Group_1085" data-name="Group 1085" transform="translate(8.542 18.889)">
            <path id="Path_2424" data-name="Path 2424" d="M255.8,184.055c-4.021-3.358-10.374-8.655-10.222-14.912a38.938,38.938,0,0,0,.613-6.885c0-18.641-13.22-32.325-30.976-35.872a66.5,66.5,0,0,1,4.014,22.834c0,.766-.018,1.528-.044,2.288-.005.184-.012.365-.02.548-.031.753-.072,1.5-.127,2.249,0,.053-.01.105-.014.158-.054.7-.123,1.405-.2,2.1-.02.175-.038.35-.06.526-.086.733-.181,1.465-.291,2.19-.014.09-.03.179-.044.269q-.153.988-.337,1.966c-.031.164-.06.329-.093.493q-.209,1.072-.449,2.134c-.024.108-.051.215-.077.323q-.222.948-.47,1.883c-.04.148-.077.3-.117.443q-.286,1.046-.6,2.078c-.036.119-.075.238-.113.357-.191.611-.393,1.22-.6,1.822-.043.127-.087.255-.132.381q-.359,1.018-.752,2.021c-.048.123-.1.245-.145.367q-.359.9-.742,1.787c-.044.1-.086.2-.131.305q-.433.99-.9,1.96c-.058.121-.117.242-.175.362q-.435.894-.893,1.772l-.108.212q-.509.96-1.046,1.9l-.2.343c-.346.6-.7,1.193-1.065,1.779-.02.032-.04.065-.06.1q-.581.93-1.191,1.835c-.071.1-.143.211-.215.317q-1.232,1.813-2.579,3.533c-.074.095-.148.189-.223.282q-1.364,1.723-2.839,3.348c-.073.082-.148.163-.222.243q-1.493,1.629-3.091,3.15l-.214.2q-1.619,1.529-3.34,2.943l-.195.16q-.872.708-1.765,1.39l-.045.034q-.876.662-1.775,1.3c-.056.038-.112.079-.167.117q-.924.647-1.871,1.261c-.031.021-.061.04-.092.058q-.924.6-1.868,1.162c-.041.025-.081.05-.123.074q-.974.581-1.971,1.128c-.045.024-.09.047-.133.071-.652.355-1.309.7-1.973,1.03-.022.012-.045.024-.067.035q-1.022.509-2.064.982l-.171.077c-.69.31-1.385.61-2.087.9h0a62.558,62.558,0,0,1-23.665,4.624,88.755,88.755,0,0,0,23.99,2.462,56.436,56.436,0,0,1-.929,9.53s3.524,3.18,23.273,3.18,22.781-3.18,22.781-3.18c-1.973-7.915,2.508-9.768,12.005-7.674,9.75,2.152,11.314-2.581,10.048-6.884s.3-4.087,1.787-6.167-2.9-5.163-2.9-5.163,5.15-1.878,3.8-3.514c-2.358-2.844.52-4.373,3.349-6.094S260.262,187.784,255.8,184.055Z" transform="translate(-155.274 -126.386)" fill="#11afe6"/>
            <path id="Path_2425" data-name="Path 2425" d="M235.43,136.67a40.5,40.5,0,0,0-20.218-10.284,66.5,66.5,0,0,1,4.014,22.834c0,.766-.018,1.528-.044,2.288-.005.184-.012.365-.02.548-.031.753-.072,1.5-.127,2.249,0,.053-.01.105-.014.158-.054.7-.123,1.405-.2,2.1-.02.175-.038.35-.06.526-.086.733-.181,1.465-.291,2.19-.014.09-.03.179-.044.269q-.153.988-.337,1.966c-.031.164-.06.329-.093.493q-.209,1.072-.449,2.134c-.024.108-.051.215-.077.323q-.222.948-.47,1.883c-.04.148-.077.3-.117.443q-.286,1.046-.6,2.078c-.036.119-.075.238-.113.357-.191.611-.393,1.22-.6,1.822-.043.127-.087.255-.132.381q-.359,1.018-.752,2.021c-.048.123-.1.245-.145.367q-.359.9-.742,1.787c-.044.1-.086.2-.131.305q-.433.99-.9,1.96c-.058.121-.117.242-.175.362q-.435.894-.893,1.772l-.108.212q-.509.96-1.046,1.9l-.2.343c-.346.6-.7,1.193-1.065,1.779-.02.032-.04.065-.06.1q-.581.93-1.191,1.835c-.071.1-.143.211-.215.317q-1.232,1.813-2.579,3.533c-.074.095-.148.189-.223.282q-1.364,1.723-2.839,3.348c-.073.082-.148.163-.222.243q-1.493,1.629-3.091,3.15l-.214.2q-1.619,1.529-3.34,2.943l-.195.16q-.872.708-1.765,1.39l-.045.034q-.876.662-1.775,1.3c-.056.038-.112.079-.167.117q-.924.647-1.871,1.261c-.031.021-.061.04-.092.058q-.924.6-1.868,1.162c-.041.025-.081.05-.123.074q-.974.581-1.971,1.128c-.045.024-.09.047-.133.071-.652.355-1.309.7-1.973,1.03-.022.012-.045.024-.067.035q-1.022.509-2.064.982l-.171.077c-.69.31-1.385.61-2.087.9a62.558,62.558,0,0,1-23.665,4.624,88.755,88.755,0,0,0,23.99,2.462S251.184,210.779,235.43,136.67Z" transform="translate(-155.274 -126.386)" opacity="0.2" fill="url(#linear-gradient)" style="mix-blend-mode: overlay;isolation: isolate"/>
          </g>
          <g id="Group_1087" data-name="Group 1087" transform="translate(0)">
            <path id="Path_2426" data-name="Path 2426" d="M186.316,102.024a10.239,10.239,0,1,1-12.233-7.748A10.239,10.239,0,0,1,186.316,102.024Zm5.47-13.8c5.559,15.351,3.127,27.605-5.214,31.452-9.212,4.248-48.483-3.1-48.483-3.1a59.56,59.56,0,0,1,19.291,6.981c-.031.008-.063.013-.1.022l.111-.014C174.8,133.849,178.632,151,179.212,161.554c.037,3.974-.713,12.041-7.11,14.049-4.006,1.093-12.507,2.346-20.162-3.555,0,0,11.658,4.867,20.53,1.008-.56-.66-1.1-1.344-1.627-2.021-1.99-2.521-4.423-5.506-7.571-6.388-4.32-1.214-12.864.587-17.222-.021-2.867-.4-7.274-1.971-8.033-5.158a27.639,27.639,0,0,0,37.468,19.786,28.874,28.874,0,0,0,13.027-10.112C215.7,133.945,191.785,88.222,191.785,88.222Z" transform="translate(-138.016 -88.222)" fill="url(#radial-gradient)"/>
            <g id="Group_1086" data-name="Group 1086" transform="translate(0.073 0)" opacity="0.3" style="mix-blend-mode: overlay;isolation: isolate">
              <path id="Path_2427" data-name="Path 2427" d="M186.646,119.674c-9.212,4.248-48.483-3.1-48.483-3.1a59.561,59.561,0,0,1,19.291,6.981c-.031.008-.063.013-.1.022l.111-.014A42.436,42.436,0,0,1,172.164,137.8c25.513,11.594,26.99-17.036,26.109-32.232a93.558,93.558,0,0,0-6.413-17.347C197.419,103.573,194.986,115.827,186.646,119.674Z" transform="translate(-138.163 -88.222)" fill="#fff"/>
              <path id="Path_2428" data-name="Path 2428" d="M207.207,120.179a10.24,10.24,0,1,0-12.233-7.748A10.239,10.239,0,0,0,207.207,120.179Z" transform="translate(-166.728 -94.143)" fill="#fff"/>
            </g>
          </g>
          <g id="Group_1088" data-name="Group 1088" transform="translate(4.03 40.65)">
            <path id="Path_2429" data-name="Path 2429" d="M181.854,197.461h-3.81V193.65a1.633,1.633,0,0,0-1.632-1.632h-4.778A1.633,1.633,0,0,0,170,193.65v3.811H166.19a1.633,1.633,0,0,0-1.632,1.633v4.778a1.633,1.633,0,0,0,1.632,1.632H170v3.81a1.634,1.634,0,0,0,1.633,1.633h4.778a1.633,1.633,0,0,0,1.632-1.633V205.5h3.81a1.634,1.634,0,0,0,1.634-1.632v-4.778A1.634,1.634,0,0,0,181.854,197.461Z" transform="translate(-155.451 -181.294)" fill="#03bbd9"/>
            <path id="Path_2430" data-name="Path 2430" d="M156.474,173.6H154.2v-2.274a.973.973,0,0,0-.974-.973h-2.849a.974.974,0,0,0-.975.973V173.6h-2.273a.973.973,0,0,0-.973.973v2.851a.974.974,0,0,0,.973.974H149.4v2.27a.974.974,0,0,0,.975.975h2.849a.973.973,0,0,0,.974-.975V178.4h2.273a.974.974,0,0,0,.974-.974v-2.851A.973.973,0,0,0,156.474,173.6Z" transform="translate(-146.158 -170.351)" fill="#03bbd9"/>
          </g>
        </g>
        <g id="Group_1094" data-name="Group 1094" transform="translate(0 128.798)">
          <g id="Group_1091" data-name="Group 1091" transform="translate(0 0)">
            <g id="Group_1090" data-name="Group 1090">
              <path id="Path_2431" data-name="Path 2431" d="M133.277,349.426h7.5v8.8H147.8v-8.8h7.5V372.1h-7.5v-8.184h-7.019V372.1h-7.5Z" transform="translate(-133.277 -348.94)" fill="#fff"/>
              <path id="Path_2432" data-name="Path 2432" d="M210.694,349.965a11.226,11.226,0,0,1,4.448,4.205,11.581,11.581,0,0,1,1.6,6.049,11.81,11.81,0,0,1-1.6,6.114,11.27,11.27,0,0,1-4.448,4.254,14.119,14.119,0,0,1-12.81,0,11.26,11.26,0,0,1-4.448-4.254,11.81,11.81,0,0,1-1.6-6.114,11.642,11.642,0,0,1,1.6-6.081,11.1,11.1,0,0,1,4.448-4.189,14.319,14.319,0,0,1,12.81.016Zm-8.718,5.45a5.221,5.221,0,0,0-1.779,1.99,6.018,6.018,0,0,0-.663,2.846,6.116,6.116,0,0,0,.663,2.863,5.311,5.311,0,0,0,1.779,2.021,4.259,4.259,0,0,0,2.41.744,4.1,4.1,0,0,0,2.361-.728,4.958,4.958,0,0,0,1.682-2.022,6.628,6.628,0,0,0,.614-2.879,6.525,6.525,0,0,0-.614-2.863,4.863,4.863,0,0,0-1.682-1.99,4.168,4.168,0,0,0-2.361-.711A4.329,4.329,0,0,0,201.976,355.416Z" transform="translate(-162.852 -348.445)" fill="#fff"/>
              <path id="Path_2433" data-name="Path 2433" d="M256.208,349.426h7.958l5.628,11.839,5.6-11.839h7.957V372.1h-6.567V359.68L272.22,369.9h-4.884l-4.561-10.222V372.1h-6.566Z" transform="translate(-195.363 -348.94)" fill="#fff"/>
              <path id="Path_2434" data-name="Path 2434" d="M327.38,349.426h19.182v5.693H334.884V357.9h10.61v5.693h-10.61v2.814h11.968V372.1H327.38Z" transform="translate(-231.309 -348.94)" fill="#fff"/>
            </g>
          </g>
          <g id="Group_1093" data-name="Group 1093" transform="translate(0 30.003)">
            <g id="Group_1092" data-name="Group 1092">
              <path id="Path_2435" data-name="Path 2435" d="M142.533,411.873a4.639,4.639,0,0,0-4.321.137,4.389,4.389,0,0,0-1.658,1.668,4.8,4.8,0,0,0,0,4.662,4.458,4.458,0,0,0,1.658,1.677,4.522,4.522,0,0,0,2.321.615,4.878,4.878,0,0,0,1.961-.43,5.615,5.615,0,0,0,1.746-1.19l1.541,1.717a8.071,8.071,0,0,1-2.5,1.726,7.039,7.039,0,0,1-2.887.634,7.146,7.146,0,0,1-3.609-.936,6.868,6.868,0,0,1-2.575-2.545,6.953,6.953,0,0,1-.936-3.56,6.794,6.794,0,0,1,.955-3.551,6.878,6.878,0,0,1,2.6-2.517,7.557,7.557,0,0,1,6.525-.331,7.046,7.046,0,0,1,2.4,1.619l-1.521,1.912A5.149,5.149,0,0,0,142.533,411.873Z" transform="translate(-133.277 -409.064)" fill="#fff"/>
              <path id="Path_2436" data-name="Path 2436" d="M186.524,409.419h2.614v5.833h6.808v-5.833h2.614v13.656h-2.614v-5.54h-6.808v5.54h-2.614Z" transform="translate(-160.169 -409.243)" fill="#fff"/>
              <path id="Path_2437" data-name="Path 2437" d="M241.309,409.419h10.007V411.7h-7.393v3.375h6.632v2.282h-6.632v3.434h7.627v2.283H241.309Z" transform="translate(-187.838 -409.243)" fill="#fff"/>
              <path id="Path_2438" data-name="Path 2438" d="M298.1,411.873a4.639,4.639,0,0,0-4.321.137,4.388,4.388,0,0,0-1.658,1.668,4.795,4.795,0,0,0,0,4.662,4.457,4.457,0,0,0,1.658,1.677,4.522,4.522,0,0,0,2.321.615,4.877,4.877,0,0,0,1.961-.43,5.615,5.615,0,0,0,1.746-1.19l1.541,1.717a8.064,8.064,0,0,1-2.5,1.726,7.036,7.036,0,0,1-2.887.634,7.145,7.145,0,0,1-3.609-.936,6.865,6.865,0,0,1-2.575-2.545,6.953,6.953,0,0,1-.936-3.56,6.793,6.793,0,0,1,.956-3.551,6.876,6.876,0,0,1,2.6-2.517,7.558,7.558,0,0,1,6.525-.331,7.045,7.045,0,0,1,2.4,1.619l-1.521,1.912A5.154,5.154,0,0,0,298.1,411.873Z" transform="translate(-211.845 -409.064)" fill="#fff"/>
              <path id="Path_2439" data-name="Path 2439" d="M354.282,423.075h-3.14l-4.292-5.852-2.146,2.36v3.492H342.09V409.419H344.7v6.809l6.165-6.809h3.082l-5.247,5.774Z" transform="translate(-238.738 -409.243)" fill="#fff"/>
            </g>
          </g>
        </g>
      </g>
    </g>
    <g id="Group_1589" data-name="Group 1589" transform="translate(-16.687 -125.317)">
      <g id="Group_1551" data-name="Group 1551" transform="translate(240.009 153.416)">
        <path id="Path_2860" data-name="Path 2860" d="M533.954,650.489s.013-.925.038-2.717c.009-.448,0-.95.028-1.505s.046-1.163.071-1.824.042-1.374.095-2.137.1-1.578.157-2.444c.254-3.457.654-7.721,1.432-12.69a151.3,151.3,0,0,1,3.651-16.883c.108-.39.21-.784.324-1.178l.353-1.187q.359-1.193.727-2.417c.534-1.619,1.049-3.288,1.663-4.968.578-1.692,1.245-3.4,1.91-5.144.707-1.732,1.41-3.508,2.212-5.287a148.953,148.953,0,0,1,12.044-22.159,151.463,151.463,0,0,1,42.365-42.676,153.786,153.786,0,0,1,14.613-8.613,149.07,149.07,0,0,1,16.1-7.133,146.591,146.591,0,0,1,17.413-5.337c1.5-.38,3.013-.689,4.532-1.022.757-.174,1.526-.3,2.291-.454s1.533-.3,2.3-.432l2.322-.382,1.163-.192,1.171-.163,2.347-.326c.784-.1,1.573-.182,2.361-.274,1.576-.2,3.164-.318,4.755-.46.8-.079,1.6-.114,2.4-.168s1.6-.106,2.4-.144l2.421-.089,1.213-.044,1.208-.014,2.42-.028c.828,0,1.629.019,2.447.027,1.629,0,3.261.089,4.9.149.819.022,1.637.1,2.457.142s1.642.094,2.462.17c1.641.153,3.29.275,4.934.483.823.1,1.649.183,2.472.292l2.471.348c.827.109,1.65.248,2.474.387s1.65.268,2.474.418c1.643.325,3.3.611,4.94.991,3.3.69,6.573,1.553,9.845,2.476,1.629.487,3.267.961,4.886,1.506,1.631.513,3.239,1.1,4.858,1.67.808.29,1.607.608,2.411.91l1.205.46c.4.155.8.324,1.2.486l2.395.982,2.375,1.042a150.316,150.316,0,0,1-.143,274.779l-2.372,1.034-2.39.975c-.4.161-.795.328-1.2.484l-1.2.455c-.8.3-1.6.616-2.407.9-1.616.565-3.222,1.147-4.849,1.655-1.616.542-3.25,1.012-4.876,1.495-3.266.913-6.534,1.767-9.824,2.448-1.637.375-3.289.657-4.928.978-.823.146-1.647.274-2.469.412s-1.643.275-2.467.38l-2.465.343c-.822.107-1.645.19-2.465.286-1.64.205-3.285.323-4.921.472-.818.074-1.637.108-2.456.165s-1.632.117-2.45.137c-1.633.057-3.264.138-4.883.139-.812.005-1.616.023-2.432.022l-2.423-.034-1.21-.016-1.206-.047-2.407-.093c-.8-.039-1.6-.1-2.4-.148s-1.594-.091-2.386-.172c-1.586-.144-3.169-.27-4.739-.469-.786-.093-1.571-.175-2.353-.277l-2.337-.33-1.166-.165-1.159-.194-2.312-.385c-.768-.136-1.531-.291-2.294-.436s-1.527-.282-2.282-.457c-1.512-.334-3.023-.645-4.512-1.027a146.037,146.037,0,0,1-17.335-5.352,148.528,148.528,0,0,1-16.02-7.137,152.86,152.86,0,0,1-14.533-8.606A150.761,150.761,0,0,1,559.315,732.6a148.222,148.222,0,0,1-11.934-22.063c-.793-1.771-1.489-3.539-2.189-5.262-.658-1.74-1.317-3.435-1.888-5.12-.608-1.67-1.115-3.331-1.643-4.942q-.363-1.218-.717-2.4l-.349-1.18c-.113-.392-.214-.784-.32-1.172a150.294,150.294,0,0,1-3.6-16.788c-.762-4.942-1.152-9.179-1.4-12.615q-.08-1.29-.152-2.428c-.05-.759-.06-1.468-.089-2.125s-.047-1.262-.068-1.813-.017-1.05-.026-1.5c-.021-1.781-.031-2.7-.031-2.7Zm.962,0s.013.919.038,2.7c.009.445,0,.943.029,1.5s.045,1.156.071,1.813.042,1.365.094,2.124.1,1.568.156,2.427c.253,3.437.65,7.672,1.423,12.609a150.04,150.04,0,0,0,3.629,16.774c.106.388.208.78.321,1.17s.235.783.352,1.179l.722,2.4c.53,1.607,1.042,3.266,1.652,4.935.575,1.681,1.236,3.375,1.9,5.111.7,1.72,1.4,3.486,2.2,5.253A148.06,148.06,0,0,0,559.465,732.5a150.53,150.53,0,0,0,42.1,42.4,152.175,152.175,0,0,0,14.52,8.558,148.2,148.2,0,0,0,16,7.088,145.723,145.723,0,0,0,17.3,5.3c1.485.378,2.994.685,4.5,1.014.753.173,1.516.3,2.276.452s1.523.3,2.289.43l2.306.38,1.157.19,1.163.162q1.164.16,2.332.324c.779.1,1.562.18,2.346.271,1.565.2,3.144.316,4.725.457.791.079,1.586.113,2.38.167s1.591.106,2.389.143l2.4.089,1.2.044,1.205.014,2.416.028c.8,0,1.615-.018,2.425-.027,1.622,0,3.241-.088,4.867-.149.812-.021,1.627-.1,2.441-.141s1.631-.093,2.447-.169c1.63-.153,3.269-.273,4.9-.48.817-.1,1.638-.182,2.456-.291l2.456-.347c.821-.108,1.638-.245,2.457-.384s1.64-.267,2.458-.415c1.633-.324,3.279-.607,4.909-.984,3.276-.685,6.53-1.543,9.782-2.459,1.619-.484,3.246-.955,4.855-1.5,1.619-.508,3.218-1.093,4.826-1.659.8-.287,1.6-.6,2.4-.9l1.2-.457c.4-.155.792-.323,1.189-.483l2.379-.977,2.36-1.035a149.353,149.353,0,0,0-.144-273.019l-2.356-1.028-2.375-.969c-.4-.159-.789-.326-1.188-.479l-1.2-.453c-.8-.3-1.59-.612-2.391-.9-1.606-.56-3.2-1.14-4.817-1.644-1.606-.538-3.229-1-4.844-1.484-3.245-.908-6.493-1.756-9.76-2.432-1.627-.372-3.268-.652-4.9-.971-.817-.146-1.636-.273-2.452-.41s-1.632-.273-2.451-.378l-2.449-.34c-.816-.106-1.635-.189-2.45-.284-1.629-.2-3.263-.321-4.889-.469-.813-.074-1.628-.108-2.44-.164s-1.623-.116-2.434-.136c-1.621-.056-3.238-.137-4.852-.137-.8-.007-1.62-.025-2.408-.023l-2.42.034-1.207.016-1.195.047-2.387.094c-.795.039-1.588.1-2.381.147s-1.584.09-2.371.17c-1.576.144-3.149.268-4.708.464-.781.093-1.561.175-2.339.276l-2.322.328-1.159.163-1.152.192-2.3.383c-.763.135-1.521.29-2.28.433s-1.517.28-2.267.454c-1.5.333-3,.641-4.483,1.021a145.175,145.175,0,0,0-17.223,5.317,147.565,147.565,0,0,0-15.916,7.091,152.062,152.062,0,0,0-14.439,8.551,149.814,149.814,0,0,0-41.808,42.285,147.131,147.131,0,0,0-11.857,21.922c-.789,1.758-1.479,3.516-2.175,5.228-.654,1.727-1.309,3.412-1.876,5.085-.6,1.66-1.108,3.311-1.632,4.91q-.361,1.209-.713,2.389l-.347,1.173c-.111.39-.212.779-.317,1.165a149.155,149.155,0,0,0-3.573,16.679c-.757,4.909-1.144,9.12-1.388,12.535q-.08,1.283-.151,2.413c-.048.754-.059,1.458-.088,2.112s-.046,1.253-.066,1.8-.017,1.045-.027,1.487c-.021,1.77-.031,2.683-.031,2.683Z" transform="translate(-512.444 -474.636)" fill="#fff"/>
        <path id="Path_2861" data-name="Path 2861" d="M3933.23,1154.2a26.47,26.47,0,1,0,26.47-26.471A26.469,26.469,0,0,0,3933.23,1154.2Z" transform="translate(-3662.968 -1056.432)" fill="#bfe8fb"/>
        <circle id="Ellipse_376" data-name="Ellipse 376" cx="29.127" cy="29.127" r="29.127" transform="translate(203.496 0)" fill="#bfe8fb"/>
        <path id="Path_2862" data-name="Path 2862" d="M1331.955,238.207a30.163,30.163,0,1,0,30.162-30.163A30.163,30.163,0,0,0,1331.955,238.207Z" transform="translate(-1252.049 -204.046)" fill="#bfe8fb"/>
        <path id="Path_2863" data-name="Path 2863" d="M400.689,1233.644a27.3,27.3,0,1,1-27.3-27.3A27.3,27.3,0,0,1,400.689,1233.644Z" transform="translate(-338.322 -1129.29)" fill="#bfe8fb"/>
        <circle id="Ellipse_377" data-name="Ellipse 377" cx="20.382" cy="20.382" r="20.382" transform="translate(288.936 169.222)" fill="#0c8b96"/>
        <path id="Path_2864" data-name="Path 2864" d="M1731.322,4233.477A23.474,23.474,0,1,0,1754.8,4210,23.474,23.474,0,0,0,1731.322,4233.477Z" transform="translate(-1622.191 -3913.151)" fill="#bfe8fb"/>
        <path id="Path_2865" data-name="Path 2865" d="M3977.034,3504.253a26.469,26.469,0,1,0,26.47-26.471A26.469,26.469,0,0,0,3977.034,3504.253Z" transform="translate(-3703.567 -3234.512)" fill="#bfe8fb"/>
        <circle id="Ellipse_378" data-name="Ellipse 378" cx="29.127" cy="29.127" r="29.127" transform="translate(0 271.876) rotate(-45)" fill="#0c8b96"/>
        <path id="Path_2866" data-name="Path 2866" d="M250.842,2438.433a26.469,26.469,0,1,0,26.47-26.471A26.469,26.469,0,0,0,250.842,2438.433Z" transform="translate(-250.049 -2246.686)" fill="#bfe8fb"/>
        <g id="Group_1504" data-name="Group 1504" transform="translate(115.257 303.754)">
          <g id="Group_1501" data-name="Group 1501" transform="translate(10.42 10.688)">
            <g id="Group_1500" data-name="Group 1500">
              <g id="Group_1499" data-name="Group 1499">
                <path id="Path_2867" data-name="Path 2867" d="M1966.733,4465.5h-4.652v-4.656h-4.656v-5.816h4.654v-4.652h4.654v4.652h4.654v5.816h-4.653Z" transform="translate(-1957.424 -4450.378)" fill="#fff"/>
              </g>
            </g>
          </g>
          <g id="Group_1502" data-name="Group 1502" transform="translate(10.42 10.688)">
            <path id="Path_2868" data-name="Path 2868" d="M1962.078,4450.378h4.654v4.652h4.654v5.816h-4.653v4.656h-4.652v-4.656h-4.656v-5.816h4.654Z" transform="translate(-1957.424 -4450.378)" fill="none"/>
          </g>
          <g id="Group_1503" data-name="Group 1503">
            <path id="Path_2869" data-name="Path 2869" d="M1962.078,4450.378h4.654v4.652h4.654v5.816h-4.653v4.656h-4.652v-4.656h-4.656v-5.816h4.654Z" transform="translate(-1947.004 -4439.689)" fill="none"/>
            <path id="Path_2870" data-name="Path 2870" d="M1815.033,4390.7v16.043a4.354,4.354,0,0,0,4.342,4.343h26.12a4.355,4.355,0,0,0,4.346-4.343V4390.7a4.107,4.107,0,0,0-4.346-4.042h-4.914v-.01h-2.329v.01h-18.877A4.106,4.106,0,0,0,1815.033,4390.7Zm10.42,5.264h4.654v-4.652h4.654v4.652h4.654v5.816h-4.653v4.656h-4.652v-4.656h-4.656Z" transform="translate(-1815.033 -4380.621)" fill="#d03033"/>
            <path id="Path_2871" data-name="Path 2871" d="M1955.511,4308.661a2.082,2.082,0,0,0-2.017-2.018h-7.6a2.084,2.084,0,0,0-2.015,2.018v1.69h-2.327v-1.69a4.354,4.354,0,0,1,4.342-4.345h7.6a4.358,4.358,0,0,1,4.346,4.345v1.68h-2.329Z" transform="translate(-1932.293 -4304.316)" fill="#d03033"/>
          </g>
        </g>
        <g id="Group_1515" data-name="Group 1515" transform="translate(85.721 16.247)">
          <path id="Path_2872" data-name="Path 2872" d="M1441.181,502.644l-1.366,10.426-7.075,2.11s-.373,5.089-1.49,5.71-3.351-.124-3.351-.124V515.8l4.841-4.592,2.11-7.82Z" transform="translate(-1426.694 -493.335)" fill="#fff"/>
          <rect id="Rectangle_2071" data-name="Rectangle 2071" width="15.206" height="12.692" transform="translate(23.4 8.809)" fill="#fff"/>
          <g id="Group_1514" data-name="Group 1514">
            <g id="Group_1513" data-name="Group 1513">
              <g id="Group_1511" data-name="Group 1511" transform="translate(6.227 7.476)">
                <g id="Group_1510" data-name="Group 1510">
                  <g id="Group_1506" data-name="Group 1506" transform="translate(0 17.225)">
                    <g id="Group_1505" data-name="Group 1505">
                      <path id="Path_2873" data-name="Path 2873" d="M1496.519,717.849a4.862,4.862,0,1,0,4.862-4.863A4.862,4.862,0,0,0,1496.519,717.849Zm5.843,1.067a1.451,1.451,0,1,1,.446-1.331,1.5,1.5,0,0,1,.024.263A1.446,1.446,0,0,1,1502.362,718.917Z" transform="translate(-1496.519 -712.987)" fill="#d03033"/>
                    </g>
                  </g>
                  <path id="Path_2874" data-name="Path 2874" d="M1901,717.849a4.862,4.862,0,1,0,4.862-4.863A4.863,4.863,0,0,0,1901,717.849Zm3.411,0a1.451,1.451,0,0,1,2.9,0,1.451,1.451,0,0,1-2.9,0Z" transform="translate(-1871.401 -695.762)" fill="#d03033"/>
                  <g id="Group_1509" data-name="Group 1509" transform="translate(14.895)">
                    <g id="Group_1508" data-name="Group 1508">
                      <g id="Group_1507" data-name="Group 1507">
                        <path id="Path_2875" data-name="Path 2875" d="M1700.069,477.6v15.879h18.045V477.6Zm4.253,6.3h3.516v-3.517h3.516V483.9h3.516v3.516h-3.516v3.516h-3.516V487.42h-3.516Z" transform="translate(-1700.069 -477.602)" fill="#d03033"/>
                      </g>
                    </g>
                  </g>
                </g>
              </g>
              <g id="Group_1512" data-name="Group 1512">
                <path id="Path_2876" data-name="Path 2876" d="M1411.422,472.413c0,.773.02,1.568.02,2.342,1.853,0,3.705,0,5.559-.021a5.631,5.631,0,0,1,6.026-4.439c2.471.139,4.212,2.2,4.964,4.383v.2h18.744a5.448,5.448,0,0,1,10.767,0h.995V451.8h-22.911v-.076h-5.375c0,.028,0,.054,0,.076h-2.22v1.25c-2.849-.02-5.7-.04-8.568,0,.224,2.81-1.12,5.355-1.771,8.022-.408,1.018-.346,2.484-1.548,2.952-1.2.59-2.423,1.14-3.624,1.69-.082,2.22-.021,4.419-.041,6.638Zm23.537-10.736a7.112,7.112,0,1,1,7.112,7.112A7.113,7.113,0,0,1,1434.96,461.677Zm-16.88,1.94c.57-2.158,1.263-4.276,1.832-6.413,1.445-.061,2.912-.041,4.357-.041.082,2.158.041,4.316.02,6.474C1422.214,463.637,1420.157,463.658,1418.08,463.617Zm-5.384,6.663q1.887-.033,3.774,0c.022.759.022,1.5,0,2.256-1.258.021-2.537.021-3.8-.022C1412.653,471.776,1412.653,471.039,1412.7,470.28Z" transform="translate(-1411.422 -446.14)" fill="#2d353e"/>
                <path id="Path_2877" data-name="Path 2877" d="M1668.157,378.124a2.69,2.69,0,0,1,5.38,0c0,.5,0,2.316,0,2.893h-5.375C1668.157,380.43,1668.157,378.625,1668.157,378.124Z" transform="translate(-1649.37 -375.434)" fill="#d03033"/>
              </g>
            </g>
            <path id="Path_2878" data-name="Path 2878" d="M1662.5,444.011a.488.488,0,0,0,.488.488h5.4a.488.488,0,0,0,.488-.488h0a.488.488,0,0,0-.488-.488h-5.4a.488.488,0,0,0-.488.488Z" transform="translate(-1644.125 -438.54)" fill="#2d353e"/>
          </g>
        </g>
        <g id="Group_1516" data-name="Group 1516" transform="translate(212.067 15.439)">
          <path id="Path_2879" data-name="Path 2879" d="M3137.976,375.3a11.027,11.027,0,0,0,.3,2.544c.008.028.015.056.021.085.011.048.024.1.035.146a15.658,15.658,0,0,0,1.867,4.352,28.022,28.022,0,0,0,3.947,4.972h11.292a.88.88,0,0,1,.82.561l1.831,4.773,6.477-16.063a.88.88,0,0,1,.784-.549.9.9,0,0,1,.818.492l2.977,6.124h5.6a.76.76,0,0,1,.134.014,18.48,18.48,0,0,0,1.221-2.255,13.978,13.978,0,0,0,.847-2.422c.011-.049.024-.1.036-.146.006-.029.013-.057.021-.085a11,11,0,0,0,.3-2.544c0-.048,0-.1,0-.144a10.906,10.906,0,0,0-6.548-9.855c-.153-.054-.306-.1-.46-.148a10.755,10.755,0,0,0-12.434,3.371c-.139.1-.209.164-.209.164l-.012-.009h0a10.888,10.888,0,0,0-8.663-4.282h-.1a10.872,10.872,0,0,0-4.355.905,9.72,9.72,0,0,0-5.144,4.557,11.979,11.979,0,0,0-.685,1.41,9.806,9.806,0,0,0-.72,3.888C3137.977,375.206,3137.976,375.254,3137.976,375.3Zm36.119-.011a.42.42,0,0,1-.041-.159,8,8,0,0,0-7.4-7.4c-.309-.018-.564-.392-.57-.839a.7.7,0,0,1,.686-.773,9.622,9.622,0,0,1,8.9,8.9.591.591,0,0,1-.051.272.764.764,0,0,1-.723.412A.888.888,0,0,1,3174.095,375.291Z" transform="translate(-3137.976 -364.398)" fill="#d03033"/>
          <path id="Path_2880" data-name="Path 2880" d="M3258.474,582.394a.876.876,0,0,0,.811.563h.008a.877.877,0,0,0,.813-.551l6.571-16.3,2.353,4.841a.876.876,0,0,0,.789.492h5.072c-3.773,4.943-9.312,8.6-10.506,9.438-1.158.812-2.63,1.738-3.765,2.433-1.093.708-1.744,1.066-1.744,1.066l-.013-.008-.014.008s-.651-.358-1.744-1.066c-1.135-.7-2.606-1.621-3.764-2.433a57.766,57.766,0,0,1-6.151-4.78h8.868Z" transform="translate(-3239.198 -551.348)" fill="#d03033"/>
        </g>
        <g id="Group_1524" data-name="Group 1524" transform="translate(17.152 259.039)">
          <path id="Path_2881" data-name="Path 2881" d="M644.611,3771.405l-21.495-12.374-1.78,1.018-1.582,3.35,1.018,1.78,20.844,11.636Z" transform="translate(-609.117 -3754.219)" fill="#fff"/>
          <g id="Group_1519" data-name="Group 1519" transform="translate(11.722 5.905)">
            <g id="Group_1518" data-name="Group 1518">
              <rect id="Rectangle_2072" data-name="Rectangle 2072" width="3.257" height="0.729" transform="translate(13.962 11.878) rotate(-60.171)" fill="#2d353e"/>
              <path id="Path_2882" data-name="Path 2882" d="M871.136,3926.738l1.62-2.825-.632-.363-1.62,2.826Z" transform="translate(-853.24 -3912.604)" fill="#2d353e"/>
              <rect id="Rectangle_2073" data-name="Rectangle 2073" width="2.411" height="0.728" transform="translate(15.613 12.825) rotate(-60.177)" fill="#2d353e"/>
              <rect id="Rectangle_2074" data-name="Rectangle 2074" width="2.411" height="0.728" transform="translate(18.915 14.718) rotate(-60.178)" fill="#2d353e"/>
              <g id="Group_1517" data-name="Group 1517">
                <path id="Path_2883" data-name="Path 2883" d="M635.124,3775.382s.912-2.121,2.6-1.15l12.266,7.032-2.34,4.081-12.54-7.188S633.915,3777.467,635.124,3775.382Z" transform="translate(-634.584 -3773.978)" fill="#d03033"/>
              </g>
            </g>
          </g>
          <g id="Group_1520" data-name="Group 1520" transform="translate(10.405 5.15)">
            <path id="Path_2884" data-name="Path 2884" d="M632.312,3767.87l20.146,11.55-.353.615-.013.021-2.075,3.62-.012.021-.354.618-20.283-11.629s-1.234-1.136.065-3.4C629.432,3769.288,630.573,3766.872,632.312,3767.87Z" transform="translate(-627.941 -3767.338)" fill="none"/>
            <path id="Path_2885" data-name="Path 2885" d="M616.574,3802.485l.008-.024h0Z" transform="translate(-616.574 -3799.622)" fill="#2d353e"/>
            <path id="Path_2886" data-name="Path 2886" d="M634.986,3764.115a4.651,4.651,0,0,1,.474-.456,4.618,4.618,0,0,0-.458.47Z" transform="translate(-633.639 -3763.659)" fill="#2d353e"/>
          </g>
          <g id="Group_1521" data-name="Group 1521">
            <path id="Path_2887" data-name="Path 2887" d="M595.617,3775.159l.016-.029h0Z" transform="translate(-586.746 -3769.141)" fill="none"/>
            <path id="Path_2888" data-name="Path 2888" d="M601.113,3765.573l.016-.029-.016.029Z" transform="translate(-591.84 -3760.256)" fill="none"/>
            <path id="Path_2889" data-name="Path 2889" d="M595.325,3762.54l.016-.028c.171-.3.688-.321,1.157-.052l.758.434a.36.36,0,0,1,.548-.064,6.267,6.267,0,0,0-1.339,2.384.361.361,0,0,1-.1-.036.369.369,0,0,1-.15-.476l-.757-.434c-.469-.269-.71-.728-.539-1.025l.016-.028h0l.386-.673Z" transform="translate(-586.052 -3757.223)" fill="#159590"/>
            <path id="Path_2890" data-name="Path 2890" d="M474.393,3693.279l9.273,5.317-.386.673-8.134-4.663Z" transform="translate(-474.393 -3693.279)" fill="#fff"/>
          </g>
          <g id="Group_1522" data-name="Group 1522" transform="translate(10.179 4.477)">
            <path id="Path_2891" data-name="Path 2891" d="M632.312,3767.87l20.146,11.55-.353.615-.013.021-2.075,3.62-.012.021-.354.618-20.283-11.629s-1.234-1.136.065-3.4C629.432,3769.288,630.573,3766.872,632.312,3767.87Z" transform="translate(-627.716 -3766.665)" fill="none"/>
            <path id="Path_2892" data-name="Path 2892" d="M614.49,3760.961h0l20.487,11.746-.409.715,1.275.73.345-.6.682-1.189,2.449-4.3.026-.015.876-1.527-1.275-.73-.4.7-20.487-11.746a2.048,2.048,0,0,0-2.513.4,4.535,4.535,0,0,0-.458.47l-.016-.015a6.266,6.266,0,0,0-1.339,2.384h0l-.009.024A2.282,2.282,0,0,0,614.49,3760.961Zm.724-3.875s1.141-2.415,2.88-1.418l20.146,11.55-.353.615-.013.021-2.075,3.62-.012.021-.354.619-20.283-11.628S613.916,3759.349,615.214,3757.086Z" transform="translate(-613.497 -3754.463)" fill="#2d353e"/>
          </g>
          <g id="Group_1523" data-name="Group 1523" transform="translate(33.551 18.059)">
            <path id="Path_2893" data-name="Path 2893" d="M932.879,3944.373l2.449-4.3.026-.015-.177.308,8.823,5.058-2.3,4.009Z" transform="translate(-932.879 -3940.056)" fill="#3f4c59"/>
            <path id="Path_2894" data-name="Path 2894" d="M1038.77,3983.544l1.351-2.356,1.656.95-4.99,8.7-1.656-.949,1.341-2.339Z" transform="translate(-1027.648 -3978.177)" fill="#2d353e"/>
          </g>
        </g>
        <g id="Group_1526" data-name="Group 1526" transform="translate(23.252 84.222)">
          <rect id="Rectangle_2075" data-name="Rectangle 2075" width="12.495" height="3.878" transform="translate(6.882 5.148)" fill="#22282c"/>
          <path id="Path_2895" data-name="Path 2895" d="M557.749,1410.7c0-5.008,3.531-9.068,7.887-9.068h10.486c4.356,0,7.887,4.061,7.887,9.068v20.319c0,.279-.016.553-.039.825a1.267,1.267,0,0,1,.012.138,1.252,1.252,0,0,1-.079.439c0,.033-.007.068-.011.1h-.036a.954.954,0,0,1-.842.572h-24.27a.953.953,0,0,1-.841-.572h-.037c-.005-.034-.007-.069-.012-.1a1.267,1.267,0,0,1-.078-.437,1.166,1.166,0,0,1,.013-.136c-.025-.272-.04-.547-.04-.827Z" transform="translate(-557.749 -1394.512)" fill="#333a43"/>
          <path id="Path_2896" data-name="Path 2896" d="M585.316,1552.077c0,2.852,2.01,5.164,4.491,5.164h13.242c2.482,0,4.491-2.312,4.491-5.164v-3.5c0-2.851-2.01-5.164-4.491-5.164H589.807c-2.481,0-4.491,2.312-4.491,5.164Z" transform="translate(-583.299 -1525.919)" fill="#e4f4f2"/>
          <rect id="Rectangle_2076" data-name="Rectangle 2076" width="15.811" height="2.089" transform="translate(5.225 19.709)" fill="#ffb955"/>
          <rect id="Rectangle_2077" data-name="Rectangle 2077" width="15.811" height="2.088" transform="translate(5.225 23.534)" fill="#ffb955"/>
          <rect id="Rectangle_2078" data-name="Rectangle 2078" width="12.383" height="2.088" transform="translate(6.938 27.359)" fill="#ffb955"/>
          <g id="Group_1525" data-name="Group 1525" transform="translate(4.312)">
            <rect id="Rectangle_2079" data-name="Rectangle 2079" width="0.626" height="5.149" transform="translate(5.653)" fill="#f17c15"/>
            <rect id="Rectangle_2080" data-name="Rectangle 2080" width="0.626" height="5.149" transform="translate(7.085)" fill="#f17c15"/>
            <rect id="Rectangle_2081" data-name="Rectangle 2081" width="0.626" height="5.149" transform="translate(15.678)" fill="#f17c15"/>
            <rect id="Rectangle_2082" data-name="Rectangle 2082" width="0.626" height="5.149" transform="translate(14.245)" fill="#f17c15"/>
            <rect id="Rectangle_2083" data-name="Rectangle 2083" width="0.626" height="5.149" transform="translate(8.517)" fill="#f17c15"/>
            <rect id="Rectangle_2084" data-name="Rectangle 2084" width="0.626" height="5.149" transform="translate(9.949)" fill="#f17c15"/>
            <rect id="Rectangle_2085" data-name="Rectangle 2085" width="0.626" height="5.149" transform="translate(4.221)" fill="#f17c15"/>
            <rect id="Rectangle_2086" data-name="Rectangle 2086" width="0.626" height="5.149" transform="translate(12.813)" fill="#f17c15"/>
            <rect id="Rectangle_2087" data-name="Rectangle 2087" width="0.626" height="5.149" transform="translate(2.788)" fill="#f17c15"/>
            <rect id="Rectangle_2088" data-name="Rectangle 2088" width="0.626" height="5.149" transform="translate(1.356)" fill="#f17c15"/>
            <rect id="Rectangle_2089" data-name="Rectangle 2089" width="0.626" height="5.149" transform="translate(11.381)" fill="#f17c15"/>
            <rect id="Rectangle_2090" data-name="Rectangle 2090" width="0.551" height="5.149" fill="#f17c15"/>
            <rect id="Rectangle_2091" data-name="Rectangle 2091" width="0.525" height="5.149" transform="translate(17.109)" fill="#f17c15"/>
            <line id="Line_188" data-name="Line 188" x1="0.806" transform="translate(16.304)" fill="#b51e81"/>
            <rect id="Rectangle_2092" data-name="Rectangle 2092" width="0.806" height="5.149" transform="translate(16.304)" fill="#dd9d4f"/>
            <line id="Line_189" data-name="Line 189" x1="0.806" transform="translate(14.871)" fill="#b51e81"/>
            <rect id="Rectangle_2093" data-name="Rectangle 2093" width="0.806" height="5.149" transform="translate(14.871)" fill="#dd9d4f"/>
            <line id="Line_190" data-name="Line 190" x1="0.806" transform="translate(13.439)" fill="#b51e81"/>
            <rect id="Rectangle_2094" data-name="Rectangle 2094" width="0.806" height="5.149" transform="translate(13.439)" fill="#dd9d4f"/>
            <line id="Line_191" data-name="Line 191" x1="0.806" transform="translate(12.007)" fill="#b51e81"/>
            <rect id="Rectangle_2095" data-name="Rectangle 2095" width="0.806" height="5.149" transform="translate(12.007)" fill="#dd9d4f"/>
            <line id="Line_192" data-name="Line 192" x1="0.806" transform="translate(10.575)" fill="#b51e81"/>
            <rect id="Rectangle_2096" data-name="Rectangle 2096" width="0.806" height="5.149" transform="translate(10.575)" fill="#dd9d4f"/>
            <line id="Line_193" data-name="Line 193" x1="0.806" transform="translate(9.143)" fill="#b51e81"/>
            <rect id="Rectangle_2097" data-name="Rectangle 2097" width="0.806" height="5.149" transform="translate(9.143)" fill="#dd9d4f"/>
            <line id="Line_194" data-name="Line 194" x1="0.806" transform="translate(7.711)" fill="#b51e81"/>
            <rect id="Rectangle_2098" data-name="Rectangle 2098" width="0.806" height="5.149" transform="translate(7.711)" fill="#dd9d4f"/>
            <line id="Line_195" data-name="Line 195" x1="0.806" transform="translate(6.279)" fill="#b51e81"/>
            <rect id="Rectangle_2099" data-name="Rectangle 2099" width="0.806" height="5.149" transform="translate(6.279)" fill="#dd9d4f"/>
            <line id="Line_196" data-name="Line 196" x1="0.806" transform="translate(4.846)" fill="#b51e81"/>
            <rect id="Rectangle_2100" data-name="Rectangle 2100" width="0.806" height="5.149" transform="translate(4.846)" fill="#dd9d4f"/>
            <line id="Line_197" data-name="Line 197" x1="0.806" transform="translate(3.414)" fill="#b51e81"/>
            <rect id="Rectangle_2101" data-name="Rectangle 2101" width="0.806" height="5.149" transform="translate(3.414)" fill="#dd9d4f"/>
            <line id="Line_198" data-name="Line 198" x1="0.806" transform="translate(1.982)" fill="#b51e81"/>
            <rect id="Rectangle_2102" data-name="Rectangle 2102" width="0.806" height="5.149" transform="translate(1.982)" fill="#dd9d4f"/>
            <line id="Line_199" data-name="Line 199" x1="0.805" transform="translate(0.551)" fill="#b51e81"/>
            <rect id="Rectangle_2103" data-name="Rectangle 2103" width="0.805" height="5.149" transform="translate(0.551)" fill="#dd9d4f"/>
          </g>
        </g>
        <g id="Group_1528" data-name="Group 1528" transform="translate(23.043 115.563)">
          <g id="Group_1527" data-name="Group 1527">
            <path id="Path_2897" data-name="Path 2897" d="M571.062,1733.206a3.447,3.447,0,0,1,1.183,4.387l-5.688-3.788A3.447,3.447,0,0,1,571.062,1733.206Z" transform="translate(-565.704 -1732.628)" fill="#fff"/>
            <path id="Path_2898" data-name="Path 2898" d="M556.44,1763.372a3.447,3.447,0,0,1-1.183-4.388l5.687,3.787A3.447,3.447,0,0,1,556.44,1763.372Z" transform="translate(-554.904 -1757.056)" fill="#fff"/>
          </g>
        </g>
        <g id="Group_1530" data-name="Group 1530" transform="translate(297.919 174)">
          <g id="Group_1529" data-name="Group 1529">
            <path id="Path_2899" data-name="Path 2899" d="M4311.274,2551.977c.043-5.413,3.856-8.948,8.944-10.064v-8.536h-.744a1.094,1.094,0,1,1,0-2.188h3.192v20.788Z" transform="translate(-4311.267 -2531.189)" fill="#e4e0dc"/>
            <path id="Path_2900" data-name="Path 2900" d="M4466.953,2531.189h3.193a1.094,1.094,0,1,1,0,2.188h-.745v8.536c5.089,1.116,8.9,4.651,8.944,10.064h-11.392Z" transform="translate(-4455.553 -2531.189)" fill="#fff8f3"/>
            <path id="Path_2901" data-name="Path 2901" d="M4478.344,2815.263c0,.032.007.061.007.092,0,6.3-4.992,10.328-11.289,10.328-.036,0-.074,0-.11,0v-10.416Z" transform="translate(-4455.553 -2794.475)" fill="#d64247"/>
            <path id="Path_2902" data-name="Path 2902" d="M4311.171,2815.355c0-.031.008-.06.008-.092h11.392v10.416C4316.324,2825.633,4311.171,2821.613,4311.171,2815.355Z" transform="translate(-4311.171 -2794.475)" fill="#d03033"/>
          </g>
        </g>
        <g id="Group_1533" data-name="Group 1533" transform="translate(16.934 170.739)">
          <g id="Group_1531" data-name="Group 1531" transform="translate(9.958 6.871)">
            <path id="Path_2903" data-name="Path 2903" d="M611.724,2626.8H608.05a.551.551,0,1,1,0-1.1h3.675a.551.551,0,1,1,0,1.1Z" transform="translate(-607.498 -2622.393)" fill="#2d353e"/>
            <path id="Path_2904" data-name="Path 2904" d="M611.724,2581.614H608.05a.551.551,0,1,1,0-1.1h3.675a.551.551,0,1,1,0,1.1Z" transform="translate(-607.498 -2580.511)" fill="#2d353e"/>
          </g>
          <g id="Group_1532" data-name="Group 1532">
            <path id="Path_2905" data-name="Path 2905" d="M496.149,2654.851a27.115,27.115,0,0,0-5.112.678v8.239s2.018,4.074,8.809,4.074,7.69-4.376,7.69-4.376v-7.942c-1.151-.235-4.088-.7-6.169.11A23.641,23.641,0,0,0,496.149,2654.851Zm3.411,8.341a.551.551,0,0,1,.552-.552h3.674a.551.551,0,1,1,0,1.1h-3.674A.551.551,0,0,1,499.559,2663.192Zm0-3.032a.55.55,0,0,1,.552-.55h3.674a.551.551,0,1,1,0,1.1h-3.674A.552.552,0,0,1,499.559,2660.159Zm0-3.031a.552.552,0,0,1,.552-.552h3.674a.552.552,0,1,1,0,1.1h-3.674A.552.552,0,0,1,499.559,2657.128Z" transform="translate(-489.601 -2642.54)" fill="#d03033"/>
            <path id="Path_2906" data-name="Path 2906" d="M471.414,2488.091v19.179a6.269,6.269,0,0,0,6.251,6.251h1.1c.022.6.736,1.1,1.708,1.278v3.558h-.033a1.046,1.046,0,0,0-1.043,1.041v3.615a1.046,1.046,0,0,0,1.043,1.042h.033v6.582h1.472v-6.582h.034a1.047,1.047,0,0,0,1.042-1.042V2519.4a1.047,1.047,0,0,0-1.042-1.041h-.034V2514.8c.975-.175,1.687-.676,1.708-1.278h1.107a6.268,6.268,0,0,0,6.251-6.251v-19.179a1.469,1.469,0,0,0-1.469-1.47H472.883A1.469,1.469,0,0,0,471.414,2488.091Zm1.436,2.459h16.5v17s-.9,4.375-7.69,4.375-8.808-4.074-8.808-4.074v-17.3Z" transform="translate(-471.414 -2486.621)" fill="#2d353e"/>
          </g>
        </g>
        <g id="Group_1537" data-name="Group 1537" transform="translate(287.324 76.785)">
          <path id="Path_2907" data-name="Path 2907" d="M4217.438,1327.554l8.792,23.891-2.3,4.305-4.548-1.213-9.217-24.5Z" transform="translate(-4206.958 -1318.418)" fill="#f5f6f8"/>
          <g id="Group_1536" data-name="Group 1536">
            <path id="Path_2908" data-name="Path 2908" d="M4202.176,1326.365l8.937,23.974,3.3,1.34,1.1-.41,1.621-3.177-8.934-23.974,1.2-.52,9.07,24.337-2.282,4.469,1.7,4.55-.755.282-.04.014-.755.282-1.695-4.55L4210,1351.1l-9.07-24.337Z" transform="translate(-4198.4 -1314.752)" fill="#313d40"/>
            <g id="Group_1534" data-name="Group 1534" transform="translate(8.634 21.426)">
              <path id="Path_2909" data-name="Path 2909" d="M4289.565,1495.5l4.247,11.394-1.326,2.922-.947.353-2.915-1.341-4.247-11.394Z" transform="translate(-4284.378 -1495.496)" fill="#d03033"/>
            </g>
            <g id="Group_1535" data-name="Group 1535">
              <path id="Path_2910" data-name="Path 2910" d="M4173.6,1215.463l-1.575-4.228a3.964,3.964,0,0,1,2.331-5.1l2.96,7.943Z" transform="translate(-4171.381 -1205.884)" fill="#d03033"/>
              <path id="Path_2911" data-name="Path 2911" d="M4207.051,1202.959a3.965,3.965,0,0,1,5.1,2.33l1.577,4.228-3.716,1.385Z" transform="translate(-4204.076 -1202.708)" fill="#b62c30"/>
              <path id="Path_2912" data-name="Path 2912" d="M4251.22,1288.47l1.324-.493a1.586,1.586,0,0,1,1.1,2.958l-5.038,1.878-.405-1.087-.7-1.871Z" transform="translate(-4241.569 -1281.661)" fill="#242b2c"/>
              <path id="Path_2913" data-name="Path 2913" d="M4167.289,1316.56l1.323-.493,3.715-1.385.7,1.871.4,1.087-5.038,1.878a1.586,1.586,0,0,1-1.1-2.958Z" transform="translate(-4166.392 -1306.488)" fill="#313d40"/>
            </g>
          </g>
        </g>
        <g id="Group_1543" data-name="Group 1543" transform="translate(282.425 244.765)">
          <g id="Group_1540" data-name="Group 1540" transform="translate(7.696)">
            <path id="Path_2914" data-name="Path 2914" d="M4221.91,3510.133c.056.051.11.105.166.158l3.658-2.827a10.6,10.6,0,0,0-10.554-9.245,10.715,10.715,0,0,0-10.572,9.23l3.744,2.891c.142-.15.228-.227.228-.227l0,.011a8.5,8.5,0,0,1,7.589-2.428,9.779,9.779,0,0,1,5.723,2.417h0Zm-3.445-6.092h-2.294v2.3h-2v-2.3h-2.3v-2h2.3v-2.293h2v2.293h2.294Z" transform="translate(-4204.607 -3498.22)" fill="#d03033"/>
            <g id="Group_1539" data-name="Group 1539" transform="translate(0.926 10.104)">
              <g id="Group_1538" data-name="Group 1538">
                <path id="Path_2915" data-name="Path 2915" d="M4227.1,3661.842l.218.427,0,.005.215-.432,3-5.894.094-.168.091-.195-.053-.228-.286-1.216a7.976,7.976,0,0,0,1.125-.645c1.131,1.782,4.842,1.613,4.842,1.613-1.065-2.1-.119-2.33.282-7.773h0a7.912,7.912,0,0,0,.052-2.239,10.041,10.041,0,0,0-2.879-6.1c-.055-.053-.11-.108-.167-.159l-.02-.019h0a9.778,9.778,0,0,0-5.723-2.417,8.5,8.5,0,0,0-7.59,2.427l0-.011s-.086.077-.227.227a10.981,10.981,0,0,0-2.788,8.286c.4,5.443,1.347,5.668.282,7.773,0,0,3.465.157,4.718-1.44a5.165,5.165,0,0,0,.8.171,7.953,7.953,0,0,0,.955.465l-.226.958-.019.081.266.559Zm3.208-8.044a.912.912,0,0,0-.1.049,7.536,7.536,0,0,1-8.7-1.692,8.826,8.826,0,0,1-1.163-5.821,16.038,16.038,0,0,0,7.553-5.665c2.071,5.665,6.937,4.608,5.488,9.393a5.8,5.8,0,0,1-1.56,2.778A7.622,7.622,0,0,1,4230.309,3653.8Zm-2.99,7.617-3.1-6.1,0-.024.2-.85a7.869,7.869,0,0,0,5.6-.145l.29,1.235Z" transform="translate(-4217.262 -3636.298)" fill="#242b2c"/>
                <path id="Path_2916" data-name="Path 2916" d="M4385.093,3770.818a.679.679,0,1,1,.679.678A.678.678,0,0,1,4385.093,3770.818Z" transform="translate(-4372.811 -3760.345)" fill="#313d40"/>
                <path id="Path_2917" data-name="Path 2917" d="M4301.476,3771.414a.637.637,0,1,1,.637-.637A.638.638,0,0,1,4301.476,3771.414Z" transform="translate(-4294.724 -3760.345)" fill="#313d40"/>
                <path id="Path_2918" data-name="Path 2918" d="M4365.6,3899.729a13.984,13.984,0,0,1,7.706,4.823,10.057,10.057,0,0,1,2.186,6.19h-12.953v-4.6h3.594Z" transform="translate(-4351.91 -3880.451)" fill="#242b2c"/>
              </g>
            </g>
          </g>
          <g id="Group_1541" data-name="Group 1541" transform="translate(0.092 30.979)">
            <path id="Path_2919" data-name="Path 2919" d="M4100.7,3927.437l.537-.245a4.578,4.578,0,0,1,3.712.1l.291.124.186.079.033-.7.133-2.757a2.361,2.361,0,1,0-4.716-.228Zm.773-1.1.121-2.489a1.641,1.641,0,0,1,3.278.158l-.117,2.444A5.344,5.344,0,0,0,4101.473,3926.333Z" transform="translate(-4100.699 -3921.562)" fill="#242b2c"/>
            <path id="Path_2920" data-name="Path 2920" d="M4172.338,3998.406l.042.02.035.018-.1.014Z" transform="translate(-4167.079 -3992.783)" fill="#d9001c"/>
          </g>
          <g id="Group_1542" data-name="Group 1542" transform="translate(0 32.039)">
            <path id="Path_2921" data-name="Path 2921" d="M4170.99,3940.99l.042.021.034.018.49-.067a4.579,4.579,0,0,1,3.528,1.157l.4.332,1.15-3.265a2.361,2.361,0,1,0-4.454-1.569l-.089.251-.825,2.344-.218.621Zm1.039-.784.828-2.35a1.641,1.641,0,0,1,3.1,1.09l-.813,2.308A5.35,5.35,0,0,0,4172.029,3940.207Z" transform="translate(-4165.754 -3936.039)" fill="#242b2c"/>
            <path id="Path_2922" data-name="Path 2922" d="M4099.444,3999.66a2.259,2.259,0,0,0,3.656,1.88,2.228,2.228,0,0,0,.263-.246c.034-.038.067-.076.1-.116s.072-.093.105-.142a2.252,2.252,0,0,0,.355-.877,2.356,2.356,0,0,0,.031-.282l.058-1.175.056-1.148.046-.964.008-.169-.027-.014-.094.013.018-.052c-.064-.032-.138-.068-.218-.1a4.792,4.792,0,0,0-2.866-.4c.02.035-.4.1-.4.1a3.749,3.749,0,0,0-.89.417l-.046.03Zm.634-3.06,1.07-.322a1.126,1.126,0,0,0-.581.654c-1.075,3.309.066,4.41.066,4.41C4099.033,4000.391,4100.079,3996.6,4100.079,3996.6Z" transform="translate(-4099.442 -3991.416)" fill="#d03033"/>
            <path id="Path_2923" data-name="Path 2923" d="M4158.57,4009.765c.047-.044.264-.29.278-.308s.042-.057.063-.087.043-.066.063-.1a2.261,2.261,0,0,0,.323-1.061l.057-1.175.1-2.112a3.391,3.391,0,0,1,1.549-.093h0a5.017,5.017,0,0,1,2.629,1.369l.049.047-.791,2.245-.36,1.02a2.253,2.253,0,0,1-4.09.361C4158.487,4009.839,4158.529,4009.8,4158.57,4009.765Z" transform="translate(-4154.126 -3999.749)" fill="#d03033"/>
          </g>
          <path id="Path_2924" data-name="Path 2924" d="M4225.877,3906.485c.036-.078.071-.158.1-.237a.03.03,0,0,1,0-.011c.028-.05.053-.1.077-.152l.009-.02.033.028,1.149-3.265a2.364,2.364,0,0,0-2.481-3.133,15.141,15.141,0,0,1,5.837-2.467l-.548,6.6h3.671v4.6h-8.59l.613-1.741A1.4,1.4,0,0,0,4225.877,3906.485Z" transform="translate(-4215.602 -3868.03)" fill="#242b2c"/>
        </g>
        <g id="Group_1545" data-name="Group 1545" transform="translate(216.739 293.875)">
          <g id="Group_1544" data-name="Group 1544">
            <path id="Path_2925" data-name="Path 2925" d="M3201.82,4193.221a23.906,23.906,0,1,0,23.9-23.906A23.906,23.906,0,0,0,3201.82,4193.221Z" transform="translate(-3201.82 -4169.315)" fill="#0c8b96"/>
          </g>
        </g>
        <g id="Group_1550" data-name="Group 1550" transform="translate(229.212 300.453)">
          <g id="Group_1549" data-name="Group 1549">
            <g id="Group_1548" data-name="Group 1548">
              <g id="Group_1546" data-name="Group 1546" transform="translate(6.45)">
                <path id="Path_2926" data-name="Path 2926" d="M3472.227,4265.124a5.911,5.911,0,1,0-5.91,5.911A5.921,5.921,0,0,0,3472.227,4265.124Z" transform="translate(-3460.406 -4259.206)" fill="#fff"/>
              </g>
              <g id="Group_1547" data-name="Group 1547" transform="translate(0 11.828)">
                <path id="Path_2927" data-name="Path 2927" d="M3393.746,4421.5c3.67,1.407,3.64,3.983,3.652,4.11l.019,9.141a2.122,2.122,0,0,1-.492,1.36,1.544,1.544,0,0,1-1.152.421l-.347,0Zm-21.479,18.452V4426.39c.47-5.564,6.827-5.546,7.1-5.545h9.89l-3.042,11.435h-1.741a2.515,2.515,0,1,0,0,5.031h7.058l0,4.258-14.512.011.006-13.892-.925,1.194v10.649l0,.4a1.918,1.918,0,1,1-3.835.02Zm12.979-3.452h-.768a1.706,1.706,0,0,1,0-3.412h1.45A7.344,7.344,0,0,0,3385.246,4436.5Z" transform="translate(-3372.267 -4420.845)" fill="#fff"/>
              </g>
            </g>
          </g>
          <path id="Path_2928" data-name="Path 2928" d="M3569.35,4436.759l-1.512-15a7.365,7.365,0,0,0-3.008-.637s-4.288,15.187-4.019,15.6c.014.018.025.038.1.038h8.438Z" transform="translate(-3547.002 -4409.274)" fill="#d03033"/>
        </g>
      </g>
      <g id="Group_1588" data-name="Group 1588" transform="translate(296.357 221.827)">
        <g id="Group_1553" data-name="Group 1553" transform="translate(10.817 0)">
          <g id="Group_1552" data-name="Group 1552">
            <path id="Path_2929" data-name="Path 2929" d="M1622.089,3082.877l0-1.172c.069-1.25.14-2.594.209-4.009l-11.023,21.153a10.009,10.009,0,0,1-7.138,5.23l-26.786.508-5.843,1.051-9.122,2.428a103.225,103.225,0,0,0,58.629,29.909l.222-26.571Z" transform="translate(-1532.786 -2932.115)" fill="#3795c7"/>
            <path id="Path_2930" data-name="Path 2930" d="M1364.824,1191.766a103.49,103.49,0,1,0-200.279,36.711,10,10,0,0,1,17.585-7.063q1.2,4.686,2.794,9.2l1.957,16.759,5.13-.9,28.859-5.085,14.917-28.625a11.906,11.906,0,0,1,11.568-14.725c.065,0,.128,0,.192,0,0-.02,0-.04,0-.06h10.029v0a19.879,19.879,0,0,0,7.984-2.1c.015.021.031.041.046.062l-1.177.7-4.768,19.555,6.542,1.635-4.361,8.177,18.3,36.192,3.4,5,4.318,8.579.018-.453,1.9-5.426L1311.959,1226l-4.361-8.177,6.542-1.635-4.768-19.555-1.177-.7c.015-.021.031-.041.047-.062a19.875,19.875,0,0,0,7.984,2.1v0h11.328s5.83-.1,7.66,1.74l-7.519,27.883-.016-.01v.068l-.009.033.009.024c.031,9.416.273,19.944.9,30.866l-.227-1,.194,12.876A103.258,103.258,0,0,0,1364.824,1191.766Z" transform="translate(-1157.844 -1088.276)" fill="#3795c7"/>
            <path id="Path_2931" data-name="Path 2931" d="M2970.107,2621.329c-.63-10.923-.873-21.45-.9-30.866l-.009-.024.009-.033v-.068l.016.01,7.519-27.883c-1.83-1.84-7.66-1.74-7.66-1.74h-11.328v0a19.881,19.881,0,0,1-7.984-2.1c-.016.021-.031.041-.046.062l1.177.7,4.768,19.555-6.542,1.635,4.361,8.177L2931.3,2632.63l-1.9,5.426-.018.453,1.3,2.585-1.7,13.58a103.213,103.213,0,0,0,41.1-21.473l-.194-12.875Z" transform="translate(-2799.37 -2451.019)" fill="#f7f8f9"/>
            <path id="Path_2932" data-name="Path 2932" d="M1249.459,3004.776l3.636,31.145a10.008,10.008,0,0,0,3.963,6.865c1.739,1.3,4.258-.821,6.4-.821a10,10,0,0,0,1.736-.152l7.121-1.9a103.564,103.564,0,0,1-22.9-35.751C1249.419,3004.368,1249.435,3004.572,1249.459,3004.776Z" transform="translate(-1242.708 -2863.966)" fill="#f7f8f9"/>
            <path id="Path_2933" data-name="Path 2933" d="M1371.878,2654.736l.638-16.228-4.318-8.579-3.4-5-18.3-36.193,4.361-8.177-6.542-1.635,4.768-19.555,1.177-.7c-.015-.021-.031-.042-.046-.062a19.885,19.885,0,0,1-7.984,2.1v0h-10.029c0,.02,0,.04,0,.06-.064,0-.128,0-.192,0a11.906,11.906,0,0,0-11.568,14.725l-14.917,28.625-28.859,5.085-5.13.9-1.957-16.759q-1.594-4.514-2.794-9.2a10,10,0,0,0-17.585,7.063,103.563,103.563,0,0,0,22.9,35.751l9.122-2.428,5.843-1.052,26.786-.508a10.008,10.008,0,0,0,7.138-5.23l11.023-21.153c-.069,1.415-.139,2.759-.208,4.01l0,1.171-.849,28.527-.221,26.572a104.416,104.416,0,0,0,41.138-2.144Z" transform="translate(-1242.508 -2451.019)" fill="#f7f8f9"/>
            <path id="Path_2934" data-name="Path 2934" d="M2925.974,3666.553l1.7-13.58-1.3-2.584-.637,16.227Z" transform="translate(-2796.366 -3462.898)" fill="#f7f8f9"/>
          </g>
          <path id="Path_2935" data-name="Path 2935" d="M2918.256,3707.465h0Z" transform="translate(-2789.425 -3515.798)" fill="none"/>
        </g>
        <g id="Group_1587" data-name="Group 1587" transform="translate(0 17.755)">
          <path id="Path_2936" data-name="Path 2936" d="M2625.709,2450.956c-4.651-6.394-12.63-9.637-23.711-9.637-12.554,0-21.4,3.338-26.281,9.92l-.008.011a25.746,25.746,0,0,0,5.167-2.12c4.761-3.71,11.838-5.586,21.122-5.586,8.1,0,14.375,1.8,18.738,5.368,1.54.767,3.829,1.7,5.088,2.206C2625.786,2451.064,2625.749,2451.01,2625.709,2450.956Z" transform="translate(-2461.136 -2360.062)" fill="#040505"/>
          <g id="Group_1556" data-name="Group 1556" transform="translate(35.102 115.382)">
            <g id="Group_1554" data-name="Group 1554">
              <path id="Path_2937" data-name="Path 2937" d="M1534.975,3049.257a107.76,107.76,0,0,1-7.086-15.855l1.957,16.759Z" transform="translate(-1525.095 -3024.2)" fill="none"/>
              <path id="Path_2938" data-name="Path 2938" d="M2918.247,3707.464h0Z" transform="translate(-2813.71 -3648.935)" fill="#ed4a1a"/>
              <path id="Path_2939" data-name="Path 2939" d="M1492.054,2913a9.955,9.955,0,0,0-2.344-5.352q1.2,4.686,2.794,9.2Z" transform="translate(-1489.71 -2907.649)" fill="#f7f8f9"/>
            </g>
            <path id="Path_2940" data-name="Path 2940" d="M2918.247,3707.464h0Z" transform="translate(-2813.71 -3648.935)" fill="none"/>
            <path id="Path_2941" data-name="Path 2941" d="M2923.161,3640.65v-.28h-.911v.416l.468,1.128Z" transform="translate(-2817.42 -3586.75)" fill="#e0e0df"/>
            <g id="Group_1555" data-name="Group 1555" transform="translate(104.83 53.899)">
              <path id="Path_2942" data-name="Path 2942" d="M2922.718,3645.463l-.468-1.128v.688h.176c.245,0,.49,0,.734,0v-.821Z" transform="translate(-2922.25 -3644.199)" fill="#e0e0df"/>
            </g>
          </g>
          <g id="Group_1557" data-name="Group 1557" transform="translate(139.639 121.562)">
            <path id="Path_2943" data-name="Path 2943" d="M3478.678,2992.165l.016-.058-.016-.01Z" transform="translate(-3437.667 -2992.097)" fill="none"/>
            <path id="Path_2944" data-name="Path 2944" d="M2918.256,3707.465h0Z" transform="translate(-2918.247 -3655.115)" fill="none"/>
            <path id="Path_2945" data-name="Path 2945" d="M3478.568,2993.083c0-.019,0-.039,0-.057l-.009.033Z" transform="translate(-3437.557 -2992.957)" fill="#003956"/>
            <path id="Path_2946" data-name="Path 2946" d="M2918.256,3707.465h0Z" transform="translate(-2918.247 -3655.115)" fill="#3cb9c8"/>
          </g>
          <g id="Group_1558" data-name="Group 1558" transform="translate(118.757 74.358)">
            <path id="Path_2947" data-name="Path 2947" d="M2730.308,2351.042l.01.008v-4.019h-24.56v5.806h-.082a20.07,20.07,0,0,1-4.256,6.083C2720.593,2360.757,2730.308,2351.042,2730.308,2351.042Z" transform="translate(-2696.405 -2347.031)" fill="#cf9e82"/>
            <path id="Path_2948" data-name="Path 2948" d="M2666.8,2405.589v-3.743l-.01-.008s-9.715,9.715-28.887,7.879a20.077,20.077,0,0,1-5.015,3.594,25.987,25.987,0,0,0,9.353,8.172v5.4h.031v.368h23.344v-.368h1.185v-5.918a26.008,26.008,0,0,0,8.452-7.731A20.129,20.129,0,0,1,2666.8,2405.589Z" transform="translate(-2632.886 -2397.826)" fill="#f2bb94"/>
          </g>
          <path id="Path_2949" data-name="Path 2949" d="M2728.6,2614.635a25.74,25.74,0,0,1-33.985,1.022l17.115,75.6Z" transform="translate(-2571.344 -2520.695)" fill="#c6cbd4"/>
          <path id="Path_2950" data-name="Path 2950" d="M2822.887,2813.68l3.865-9.46-4.6-42.993-3.633-1.059v-.046l-.079.023-.079-.023v.046l-3.633,1.059-4.916,45.841,5.85,11.088,2.8,7.832.916-1.628,2.289-6.459Z" transform="translate(-2678.11 -2655.534)" fill="#2f4a67"/>
          <path id="Path_2951" data-name="Path 2951" d="M2845.636,2668.881l-5.686-.78-5.687.78-1.105,3.159,2.686,4.265,4.107.158,4.107-.158,2.685-4.265Z" transform="translate(-2699.745 -2570.249)" fill="#2f4a67"/>
          <path id="Path_2952" data-name="Path 2952" d="M2618.608,2534.13l18.236,9.8-12.941,12.942-9.608-20.2Z" transform="translate(-2496.898 -2446.081)" fill="#b1bfb9"/>
          <path id="Path_2953" data-name="Path 2953" d="M2941.269,2534.13l-18.236,9.8,12.941,12.942,9.373-19.99Z" transform="translate(-2783.043 -2446.081)" fill="#b1bfb9"/>
          <g id="Group_1559" data-name="Group 1559" transform="translate(109.011 6.464)">
            <path id="Path_2954" data-name="Path 2954" d="M2959.834,1448.34c0-22.132-13.307-29.1-30.6-29.1-.213,0-.425,0-.636.006v75.942C2945.855,1495.117,2959.834,1470.443,2959.834,1448.34Z" transform="translate(-2897.208 -1419.239)" fill="#f2bb94"/>
            <path id="Path_2955" data-name="Path 2955" d="M2530.293,1419.34c-16.666.543-30.6,7.554-30.6,29.076,0,21.828,13.638,46.337,30.6,46.824.241.007.478.024.716.024l.073,0v-75.942Q2530.688,1419.328,2530.293,1419.34Z" transform="translate(-2499.696 -1419.315)" fill="#deaa87"/>
          </g>
          <g id="Group_1563" data-name="Group 1563" transform="translate(104.363)">
            <g id="Group_1562" data-name="Group 1562">
              <g id="Group_1561" data-name="Group 1561">
                <g id="Group_1560" data-name="Group 1560">
                  <path id="Path_2956" data-name="Path 2956" d="M2520.107,1363.675a45.008,45.008,0,0,0-4.784-17.057c2.7-12.044-8.559-15.4-20.428-15.688a96.9,96.9,0,0,0-23.953,2.626,20.113,20.113,0,0,1-5.664.85c-1.646.054-2.9-.007-2.9-.007a12.907,12.907,0,0,0,.591,1.488c.268.618.531,1.178.531,1.178a4.444,4.444,0,0,1-1.58-.38,63.137,63.137,0,0,1-6.285-2.988,15.839,15.839,0,0,0,1.231,8.182,16.229,16.229,0,0,0,1.859,3.334,7.848,7.848,0,0,1-2.669-.7,21.858,21.858,0,0,0,1.126,3.934c-4.226,3.083-5.2,11.985-5.282,18.949l7.242,8.457,2.5-6.07c.053.008.1.009.158.016,1.768-6.39,3.24-16.016,3.24-16.016,18.895,12.13,36.281,2.438,39.285.577.57-.625.872-1,.872-1,1.071,12.138,9.279,20.349,9.279,20.349-.685-5.155,5.229-9.2,5.669-9.49l.041-.028C2520.168,1364.011,2520.137,1363.849,2520.107,1363.675Z" transform="translate(-2450.75 -1330.909)" fill="#2d1b12"/>
                  <path id="Path_2957" data-name="Path 2957" d="M3292.665,1796.426c-1.182,4.516-.342,8.652,1.872,9.235s4.973-2.6,6.159-7.119.341-8.651-1.873-9.235S3293.85,1791.909,3292.665,1796.426Z" transform="translate(-3229.493 -1755.698)" fill="#f2bb94"/>
                  <path id="Path_2958" data-name="Path 2958" d="M2444.1,1799.873c1.229,4.413.583,8.448-1.43,9.008s-4.638-2.562-5.863-6.977-.583-8.449,1.429-9.01S2442.879,1795.457,2444.1,1799.873Z" transform="translate(-2436.186 -1759.026)" fill="#deaa87"/>
                </g>
              </g>
            </g>
          </g>
          <path id="Path_2959" data-name="Path 2959" d="M2873.787,3567.957l2.873-5.682c-2.133-2.246-6.633,2.39-6.633,2.39v1.113l2.445-.423Z" transform="translate(-2733.916 -3398.419)" fill="none"/>
          <path id="Path_2960" data-name="Path 2960" d="M2576.9,2616.646l-17.115-75.6-1.564-6.912-3.136,1.854-1.177.7-4.768,19.555,6.542,1.635-4.361,8.177Z" transform="translate(-2436.51 -2446.081)" fill="#e0e0df"/>
          <path id="Path_2961" data-name="Path 2961" d="M2955.751,2558.479l-4.768-19.555-.052-.031-4.374-2.341-1.185,5.714-16.871,76.625,25.069-50.6-4.362-8.177Z" transform="translate(-2788.112 -2448.326)" fill="#e0e0df"/>
          <rect id="Rectangle_2104" data-name="Rectangle 2104" width="80.418" height="101.862" transform="translate(2.481 63.51) rotate(-11.414)" fill="#15505a"/>
          <rect id="Rectangle_2105" data-name="Rectangle 2105" width="71.953" height="91.14" transform="translate(7.69 67.927) rotate(-11.414)" fill="#fff"/>
          <g id="Group_1564" data-name="Group 1564" transform="translate(18.303 78.921)">
            <rect id="Rectangle_2106" data-name="Rectangle 2106" width="5.362" height="5.36" transform="matrix(0.98, -0.198, 0.198, 0.98, 0, 10.93)" fill="#213944"/>
            <rect id="Rectangle_2107" data-name="Rectangle 2107" width="44.518" height="5.36" transform="translate(10.5 8.81) rotate(-11.414)" fill="#213944"/>
          </g>
          <g id="Group_1565" data-name="Group 1565" transform="translate(20.318 90.014)">
            <rect id="Rectangle_2108" data-name="Rectangle 2108" width="5.36" height="5.36" transform="translate(0 9.82) rotate(-11.423)" fill="#213944"/>
            <rect id="Rectangle_2109" data-name="Rectangle 2109" width="38.906" height="5.36" transform="matrix(0.98, -0.198, 0.198, 0.98, 10.501, 7.7)" fill="#213944"/>
          </g>
          <g id="Group_1566" data-name="Group 1566" transform="translate(22.334 100.728)">
            <rect id="Rectangle_2110" data-name="Rectangle 2110" width="5.362" height="5.36" transform="translate(0 9.087) rotate(-11.416)" fill="#213944"/>
            <rect id="Rectangle_2111" data-name="Rectangle 2111" width="35.207" height="5.36" transform="translate(10.5 6.967) rotate(-11.414)" fill="#213944"/>
          </g>
          <g id="Group_1567" data-name="Group 1567" transform="translate(24.349 108.643)">
            <rect id="Rectangle_2112" data-name="Rectangle 2112" width="5.362" height="5.36" transform="translate(0 11.155) rotate(-11.415)" fill="#213944"/>
            <rect id="Rectangle_2113" data-name="Rectangle 2113" width="45.659" height="5.36" transform="translate(10.501 9.035) rotate(-11.414)" fill="#213944"/>
          </g>
          <g id="Group_1568" data-name="Group 1568" transform="translate(26.364 118.625)">
            <path id="Path_2962" data-name="Path 2962" d="M1376.619,3095.155l-5.255,1.061-1.061-5.254,5.256-1.061Z" transform="translate(-1370.303 -3079.806)" fill="#213944"/>
            <rect id="Rectangle_2114" data-name="Rectangle 2114" width="45.658" height="5.36" transform="translate(10.501 9.035) rotate(-11.414)" fill="#213944"/>
          </g>
          <g id="Group_1569" data-name="Group 1569" transform="translate(1.11 99.957)">
            <path id="Path_2963" data-name="Path 2963" d="M1029.335,2706.794a4.2,4.2,0,0,0,.592-.042l11.5-1.643a4.149,4.149,0,1,0-1.174-8.215l-11.5,1.642a4.15,4.15,0,0,0,.581,8.257Z" transform="translate(-1025.19 -2696.852)" fill="#deaa87"/>
          </g>
          <g id="Group_1570" data-name="Group 1570" transform="translate(0 109.222)">
            <path id="Path_2964" data-name="Path 2964" d="M1014.691,2833.14l11.267-1.408a4.149,4.149,0,0,0-1.029-8.234l-11.267,1.408a4.149,4.149,0,1,0,1.029,8.234Z" transform="translate(-1010.027 -2823.466)" fill="#deaa87"/>
          </g>
          <g id="Group_1571" data-name="Group 1571" transform="translate(2.154 117.46)">
            <path id="Path_2965" data-name="Path 2965" d="M1055.64,2944.264a4.149,4.149,0,0,0-1.529-8.156l-11.267,2.112a4.149,4.149,0,1,0,1.529,8.156Z" transform="translate(-1039.459 -2936.036)" fill="#deaa87"/>
          </g>
          <g id="Group_1572" data-name="Group 1572" transform="translate(6.294 125.87)">
            <path id="Path_2966" data-name="Path 2966" d="M1113.5,3054.077a3.714,3.714,0,0,0-4.276-3.055l-10.091,1.682a3.716,3.716,0,0,0,.607,7.382,3.674,3.674,0,0,0,.616-.052l10.09-1.682A3.715,3.715,0,0,0,1113.5,3054.077Z" transform="translate(-1096.031 -3050.971)" fill="#deaa87"/>
          </g>
          <path id="Path_2967" data-name="Path 2967" d="M3406.689,2595.71c2.82,5.972,1.084,12.711-3.876,15.053s-11.268-.6-14.088-6.57-1.084-12.711,3.876-15.053S3403.869,2589.739,3406.689,2595.71Z" transform="translate(-3213.405 -2496.318)" fill="#f7f8f9"/>
          <path id="Path_2968" data-name="Path 2968" d="M2886.757,3390.372a1.38,1.38,0,1,1-1.38-1.38A1.379,1.379,0,0,1,2886.757,3390.372Z" transform="translate(-2746.864 -3238.386)" fill="#26262a"/>
          <path id="Path_2969" data-name="Path 2969" d="M2944.15,3396.033a1.38,1.38,0,1,1-1.379-1.38A1.379,1.379,0,0,1,2944.15,3396.033Z" transform="translate(-2800.059 -3243.632)" fill="#26262a"/>
          <g id="Group_1573" data-name="Group 1573" transform="translate(146.447 147.426)">
            <path id="Path_2970" data-name="Path 2970" d="M3045.834,3352.342c-5.934-4.139-18.139-6.222-29.182-6.812l-5.376,10.971,34.937,1.645Z" transform="translate(-3011.276 -3345.53)" fill="#e0e0df"/>
          </g>
          <g id="Group_1574" data-name="Group 1574" transform="translate(110.39 89.069)">
            <path id="Path_2971" data-name="Path 2971" d="M2518.553,2564.619a29.867,29.867,0,0,0,1.032,7.389l2.13-.644c-.035-.114-3.372-11.548,2.82-19.875a17.749,17.749,0,0,1,3.363-3.421,25.751,25.751,0,0,1-5.167,2.12A23.205,23.205,0,0,0,2518.553,2564.619Z" transform="translate(-2518.547 -2548.067)" fill="#040505"/>
            <path id="Path_2972" data-name="Path 2972" d="M3266.375,2968.759l1.059.342-1.059-.343Z" transform="translate(-3211.65 -2937.973)" fill="#040505"/>
          </g>
          <path id="Path_2973" data-name="Path 2973" d="M3196.112,2547.289c-1.259-.5-3.548-1.438-5.088-2.206a17.956,17.956,0,0,1,3.169,3.346c4,5.5,4.441,12.684,4.1,17.743a46.227,46.227,0,0,1-1.757,9.915l1.059.343,1.059.342a47.528,47.528,0,0,0,1.856-10.392C3201.038,2558.663,3199.517,2552.068,3196.112,2547.289Z" transform="translate(-3031.424 -2456.232)" fill="#040505"/>
          <g id="Group_1575" data-name="Group 1575" transform="translate(159.107 112.925)">
            <path id="Path_2974" data-name="Path 2974" d="M3204.491,2887.505a6.779,6.779,0,1,1-6.78-6.779A6.78,6.78,0,0,1,3204.491,2887.505Z" transform="translate(-3190.446 -2880.239)" fill="#e0e0df"/>
            <path id="Path_2975" data-name="Path 2975" d="M3191.544,2888.6a7.266,7.266,0,1,1,7.266-7.266A7.274,7.274,0,0,1,3191.544,2888.6Zm0-13.559a6.293,6.293,0,1,0,6.292,6.292A6.3,6.3,0,0,0,3191.544,2875.046Z" transform="translate(-3184.278 -2874.072)" fill="#040505"/>
          </g>
          <circle id="Ellipse_379" data-name="Ellipse 379" cx="4.902" cy="4.902" r="4.902" transform="translate(159.441 120.191) rotate(-45)" fill="#a5a5a5"/>
          <g id="Group_1576" data-name="Group 1576" transform="translate(102.325 110.319)">
            <path id="Path_2976" data-name="Path 2976" d="M2429.854,3146.279c-5.4-.288-6.046-3.759-6.071-3.906l-3.63-21.71,1.649-.276,3.63,21.71c.016.082.508,2.3,4.51,2.512Z" transform="translate(-2419.288 -3099.757)" fill="#a5a5a5"/>
            <path id="Path_2977" data-name="Path 2977" d="M2713.494,3084.419c5.017-2.029,4.494-5.521,4.469-5.668l-3.629-21.711-1.649.276,3.63,21.71c.011.083.269,2.34-3.448,3.843Z" transform="translate(-2690.413 -3041.045)" fill="#a5a5a5"/>
            <path id="Path_2978" data-name="Path 2978" d="M2530.676,3436.713c1.588.315,2.709,1.4,2.505,2.431s-1.657,1.6-3.244,1.289-2.71-1.4-2.506-2.431S2529.089,3436.4,2530.676,3436.713Z" transform="translate(-2518.694 -3392.854)" fill="#1f1d1e"/>
            <path id="Path_2979" data-name="Path 2979" d="M2671.238,3410.341c-1.4.815-2.105,2.209-1.578,3.114s2.089.978,3.487.164,2.1-2.209,1.578-3.114S2672.636,3409.526,2671.238,3410.341Z" transform="translate(-2650.374 -3367.967)" fill="#1f1d1e"/>
            <path id="Path_2980" data-name="Path 2980" d="M2408.744,2859.971a37.355,37.355,0,0,1-.173-9.643c.849-6.827,3.949-10.879,8.965-11.717,11.891-1.989,15.111,16.426,15.242,17.21l-2.473.415c-.028-.167-2.927-16.729-12.355-15.152-3.863.646-6.181,3.861-6.89,9.553a35.316,35.316,0,0,0,.158,8.921Z" transform="translate(-2408.334 -2838.461)" fill="#1f1d1e"/>
          </g>
          <path id="Path_2981" data-name="Path 2981" d="M1512.385,2244.942a7.965,7.965,0,1,0,9.3,6.361A7.965,7.965,0,0,0,1512.385,2244.942Zm6.962,8.429-3.625.679.679,3.623-3.153.591-.679-3.623-3.621.679-.591-3.152,3.621-.679-.679-3.621,3.153-.591.679,3.621,3.625-.679Z" transform="translate(-1469.6 -2177.928)" fill="#d03033"/>
          <g id="Group_1579" data-name="Group 1579" transform="translate(26.345 42.036)">
            <g id="Group_1577" data-name="Group 1577" transform="translate(0 6.766)">
              <path id="Path_2982" data-name="Path 2982" d="M1406.9,2014.194l-14.368,3.352-14.545,2.486a16.661,16.661,0,0,1,.176,9.486l15.563-3.143,1.128-.227,15.816-3.193A18.23,18.23,0,0,1,1406.9,2014.194Z" transform="translate(-1377.406 -2012.995)" fill="#244045"/>
              <path id="Path_2983" data-name="Path 2983" d="M1405.249,2111.512a1.721,1.721,0,0,1-1.346,2.029l-29.881,6.033a1.724,1.724,0,0,1-2.03-1.347h0a1.725,1.725,0,0,1,1.349-2.03l29.881-6.033a1.722,1.722,0,0,1,2.028,1.348Z" transform="translate(-1371.817 -2101.91)" fill="#213944"/>
              <path id="Path_2984" data-name="Path 2984" d="M1400.113,1999.049a1.554,1.554,0,0,1-1.216,1.831l-26.993,5.45a1.557,1.557,0,0,1-1.833-1.216h0a1.556,1.556,0,0,1,1.218-1.833l26.992-5.45a1.556,1.556,0,0,1,1.832,1.218Z" transform="translate(-1370.039 -1997.8)" fill="#213944"/>
            </g>
            <g id="Group_1578" data-name="Group 1578" transform="translate(5.642)">
              <path id="Path_2985" data-name="Path 2985" d="M1464.7,1912.459a8.865,8.865,0,0,0-17.379,3.509l.517,2.562,17.38-3.509Zm-8.575,2.314a3.443,3.443,0,1,1,2.693-4.055A3.444,3.444,0,0,1,1456.126,1914.773Z" transform="translate(-1447.145 -1905.347)" fill="#213944"/>
            </g>
          </g>
          <path id="Path_2986" data-name="Path 2986" d="M2697.649,3134.628s1.239,1.391,4.628,2.315l-1.027,18.594a11.2,11.2,0,0,0-6.06.734Z" transform="translate(-2571.874 -3002.635)" fill="#deaa87"/>
          <g id="Group_1586" data-name="Group 1586" transform="translate(85.468 121.455)">
            <g id="Group_1585" data-name="Group 1585">
              <g id="Group_1584" data-name="Group 1584">
                <g id="Group_1583" data-name="Group 1583">
                  <path id="Path_2987" data-name="Path 2987" d="M2758.743,3127.092l-7.187-.35a1.8,1.8,0,0,0-1.889,1.714l-.459,9.448-.459,9.448a1.8,1.8,0,0,0,1.714,1.889l7.188.35a1.8,1.8,0,0,0,1.888-1.714l.459-9.447.459-9.448A1.8,1.8,0,0,0,2758.743,3127.092Z" transform="translate(-2706.978 -3116.779)" fill="#fff"/>
                  <g id="Group_1582" data-name="Group 1582">
                    <g id="Group_1581" data-name="Group 1581">
                      <g id="Group_1580" data-name="Group 1580">
                        <path id="Path_2988" data-name="Path 2988" d="M2194.577,3019.613a2.9,2.9,0,0,1,2.86-2.737.224.224,0,0,0-.011-.04l-2.708-.131a2.912,2.912,0,1,1,.283-5.817l-2.908-.142a2.911,2.911,0,1,1,.283-5.816l-11.633-.565a2.911,2.911,0,1,1,.283-5.815l1.857.09,15.591.758,2.1.1a.9.9,0,0,0,.8-.628.87.87,0,0,0-.279-.964c-2.687-2.276-5.45-2.274-5.3-5.358a2.018,2.018,0,0,1,3.084-1.621l19.167,10.064a1.456,1.456,0,0,1,.684,1.308c-.124,2.545-.56,11.518-.825,16.988a4.365,4.365,0,0,1-4.573,4.15l-15.994-.778A2.917,2.917,0,0,1,2194.577,3019.613Z" transform="translate(-2177.973 -2990.626)" fill="#deaa87"/>
                      </g>
                    </g>
                  </g>
                </g>
              </g>
            </g>
          </g>
          <path id="Path_2989" data-name="Path 2989" d="M2863.362,2761.793c-.176,0-.351,0-.526-.011l-67.751-2.823,1.051-25.208,51.5,4.059-11.084-26.252,21.651-8.249,16.367,40.081a12.615,12.615,0,0,1-11.207,18.4Z" transform="translate(-2664.458 -2602.88)" fill="#f7f8f9"/>
        </g>
      </g>
    </g>
  </g>
</svg>
