<svg xmlns="http://www.w3.org/2000/svg" width="58.632" height="67.017" viewBox="0 0 58.632 67.017">
  <path id="ico-monitoraggio" d="M4.657,50.734C-4.524,34.75.3,13.88,15.359,4.178A30.248,30.248,0,0,1,25,.06a2.391,2.391,0,0,1,2.444.907,2.7,2.7,0,0,1,.265,2.723L26.522,6.411a33.535,33.535,0,0,0,2.246,28.757A30.261,30.261,0,0,0,51.954,50.594c.924.07,1.85.14,2.84.14a2.39,2.39,0,0,1,2.18,1.466,2.692,2.692,0,0,1-.33,2.722,32.528,32.528,0,0,1-7.861,7.12A31.085,31.085,0,0,1,38.676,66.3a30.461,30.461,0,0,1-6.575.718A31.694,31.694,0,0,1,4.657,50.734ZM17.076,7.109c-13.542,8.725-17.9,27.5-9.644,41.81A28.894,28.894,0,0,0,25.2,62.669,27.113,27.113,0,0,0,47,59.11a27.638,27.638,0,0,0,5.879-5.026,8.495,8.495,0,0,1-1.321-.139A33.173,33.173,0,0,1,25.994,36.983a37.122,37.122,0,0,1-2.51-31.828c.2-.419.33-.837.529-1.256A28.713,28.713,0,0,0,17.076,7.109ZM36.43,38.449a1.269,1.269,0,0,1-1.122-.7,1.507,1.507,0,0,1,.132-1.4L44.159,24.7H36.43a1.328,1.328,0,0,1,0-2.652H46.67a1.27,1.27,0,0,1,1.123.7,1.509,1.509,0,0,1-.133,1.4L38.941,35.867H46.67a1.291,1.291,0,0,1,1.255,1.326,1.321,1.321,0,0,1-1.255,1.256ZM52.945,24a.523.523,0,0,1-.529-.349.672.672,0,0,1,.066-.7l4.36-5.863H53.011a.629.629,0,0,1,0-1.256h5.021a.523.523,0,0,1,.529.349.672.672,0,0,1-.066.7l-4.36,5.863h3.9a.629.629,0,0,1,0,1.256ZM39.007,12.833a.523.523,0,0,1-.529-.349.672.672,0,0,1,.066-.7L42.9,5.923H39.073a.629.629,0,0,1,0-1.256h5.086a.522.522,0,0,1,.529.349.671.671,0,0,1-.066.7l-4.36,5.863h3.831a.61.61,0,0,1,.595.628c.066.28-.264.628-.595.628Z" fill="#394c6d"/>
</svg>
