<svg xmlns="http://www.w3.org/2000/svg" width="63.382" height="63.411" viewBox="0 0 63.382 63.411">
  <g id="ico-glucosio-white" transform="translate(0 0)">
    <path id="Path_2213" data-name="Path 2213" d="M29.107,63.407A12.226,12.226,0,0,1,20.4,59.815l-3.75-3.75a.991.991,0,1,1,1.4-1.4l3.77,3.75a10.368,10.368,0,0,0,14.619,0l22.02-22.02a10.368,10.368,0,0,0,0-14.619L41.635,4.992a10.368,10.368,0,0,0-14.619,0l-22,22.025a10.368,10.368,0,0,0,0,14.619l3.814,3.814a.991.991,0,0,1-1.377,1.4L3.64,43.032a12.35,12.35,0,0,1,0-17.418l22-22.025a12.35,12.35,0,0,1,17.417,0L59.835,20.368a12.35,12.35,0,0,1,0,17.418l-22.02,22.03A12.226,12.226,0,0,1,29.107,63.407Z" transform="translate(-0.046 0.004)" fill="#fff"/>
    <path id="Path_2214" data-name="Path 2214" d="M58.967,52.671a.991.991,0,0,1-.7-.292L37.8,31.919a.991.991,0,0,1,0-1.4L52.487,15.834a.991.991,0,0,1,1.4,0L74.353,36.3a.991.991,0,0,1,0,1.4L59.665,52.378A.991.991,0,0,1,58.967,52.671ZM39.9,31.216,58.967,50.278,72.248,37,53.185,17.934Z" transform="translate(-18.953 -7.842)" fill="#fff"/>
    <path id="Path_2215" data-name="Path 2215" d="M9.406,106.795a.991.991,0,0,1-.7-.292L1.054,98.854a.991.991,0,0,1,0-1.4L11.487,87.024a.991.991,0,0,1,1.4,1.4L3.159,98.155,9.406,104.4l9.729-9.729a.991.991,0,0,1,1.4,1.4L10.11,106.508A.991.991,0,0,1,9.406,106.795Z" transform="translate(-0.408 -43.766)" fill="#fff"/>
    <path id="Path_2216" data-name="Path 2216" d="M16.22,109.061a2.621,2.621,0,1,1,1.853-.768A2.621,2.621,0,0,1,16.22,109.061Zm0-3.26a.644.644,0,1,0,.451.188.644.644,0,0,0-.451-.188Z" transform="translate(-6.885 -52.387)" fill="#fff"/>
    <path id="Path_2217" data-name="Path 2217" d="M66.486,54.039a4.553,4.553,0,0,1-3.22-7.768c2.809-2.809,9.036-3.963,9.3-4.018a.991.991,0,0,1,1.159,1.115c-.035.253-.912,6.232-4.022,9.343A4.523,4.523,0,0,1,66.486,54.039Z" transform="translate(-31.277 -21.312)" fill="#fff"/>
    <path id="Path_2218" data-name="Path 2218" d="M28.7,70.989A.991.991,0,0,1,28,70.7l-5.2-5.211a5.408,5.408,0,0,1,7.649-7.649l5.2,5.2a.991.991,0,0,1,0,1.4l-6.247,6.247A.991.991,0,0,1,28.7,70.989ZM26.621,58.243A3.423,3.423,0,0,0,24.2,64.083l4.5,4.5,4.845-4.845-4.508-4.5A3.4,3.4,0,0,0,26.621,58.243Z" transform="translate(-10.727 -28.384)" fill="#fff"/>
    <path id="Path_2219" data-name="Path 2219" d="M51.35,91.785a5.37,5.37,0,0,1-3.824-1.58l-5.192-5.192a.991.991,0,0,1,0-1.4l6.242-6.247a.991.991,0,0,1,1.4,0l5.2,5.2a5.4,5.4,0,0,1-3.824,9.224Zm-6.935-7.475,4.5,4.5a3.428,3.428,0,0,0,4.86-4.835l-4.5-4.5Z" transform="translate(-21.239 -38.891)" fill="#fff"/>
    <path id="Path_2220" data-name="Path 2220" d="M29.181,97.475a.991.991,0,0,1-.877-1.451c-.129-.634-1.328-2.66-3.963-5.311s-4.676-3.854-5.31-3.963a.991.991,0,0,1-1.164-1.575c.936-.936,2.512-.1,3.611.6a27.248,27.248,0,0,1,4.235,3.557A27.245,27.245,0,0,1,29.265,93.6c.708,1.1,1.541,2.675.6,3.611A.991.991,0,0,1,29.181,97.475Z" transform="translate(-8.893 -42.768)" fill="#fff"/>
  </g>
</svg>
