<svg xmlns="http://www.w3.org/2000/svg" width="54.284" height="69.552" viewBox="0 0 54.284 69.552">
  <path id="ico-ossigeno-white" d="M0,49.015C0,38.28,19,2.107,19.838.579A1.262,1.262,0,0,1,20.909,0,1.3,1.3,0,0,1,21.98.579c0,.119,3.789,7.355,8.073,16.227a22.3,22.3,0,0,1,5.588-.824A18.526,18.526,0,0,1,54.284,34.31a18.483,18.483,0,0,1-12.713,17.4A20.766,20.766,0,0,1,20.909,69.552,20.763,20.763,0,0,1,0,49.015Zm2.375,0a18.4,18.4,0,0,0,18.534,18.2A18.385,18.385,0,0,0,39.073,52.286a16.7,16.7,0,0,1-3.432.34A18.636,18.636,0,0,1,16.873,34.185,18.459,18.459,0,0,1,27.8,17.5c-2.856-5.958-5.464-11.2-6.892-13.893C16.749,11.546,2.375,40.149,2.375,49.015Zm16.873-14.7A16.388,16.388,0,1,0,35.64,18.2,16.28,16.28,0,0,0,19.248,34.31Zm19.811,5.958H30.245V37.194l3.707-3.528.275-.245c1.812-1.731,2.485-2.364,2.485-3.158a.846.846,0,0,0-.934-.89c-.686,0-1.194.448-1.194,1.409h-4.75a6.167,6.167,0,0,1,.645-2.884c.92-1.755,2.842-2.782,5.67-2.782,4.242,0,5.862,2.293,5.862,4.609s-1.4,3.6-3.624,5.684c-.11.1-.22.2-.329.3l-.618.579H42.23v3.982Z" fill="#fff"/>
</svg>
