<svg xmlns="http://www.w3.org/2000/svg" width="46.242" height="72.646" viewBox="0 0 46.242 72.646">
  <path id="ico-temperatura-white" d="M27.319,65.517A10.128,10.128,0,0,1,31.3,54.327l0-48.946A5.374,5.374,0,0,1,36.359,0h0A5.189,5.189,0,0,1,40.211,1.5a5.52,5.52,0,0,1,1.647,3.884l0,48.946a10.129,10.129,0,0,1,3.981,11.19,9.58,9.58,0,0,1-18.522,0ZM32.551,5.381l0,49.681a8.772,8.772,0,0,0-4.12,9.755,8.34,8.34,0,0,0,16.283,0A8.775,8.775,0,0,0,40.6,55.062V5.381A4.23,4.23,0,0,0,39.377,2.4a3.97,3.97,0,0,0-2.92-1.17h0A4.092,4.092,0,0,0,32.551,5.381ZM30.318,63.554a6.233,6.233,0,0,1,4.323-6.863V28.466a1.683,1.683,0,0,1,2.006.061v0a1.831,1.831,0,0,0,1.317-.051V56.69a6.241,6.241,0,0,1,4.323,6.863,6.02,6.02,0,0,1-11.969,0ZM5.58,11.917a8.724,8.724,0,0,1,8.564-8.837,8.5,8.5,0,0,1,6.063,2.581.864.864,0,0,1,0,1.143.8.8,0,0,1-1.106,0,6.926,6.926,0,0,0-4.956-2.136,7.1,7.1,0,0,0-6.975,7.2,7.094,7.094,0,0,0,6.975,7.2A6.807,6.807,0,0,0,19.1,16.931a.933.933,0,0,1,1.106.1.864.864,0,0,1,0,1.143,8.309,8.309,0,0,1-6.063,2.581A8.724,8.724,0,0,1,5.58,11.917ZM0,2.335A2.3,2.3,0,0,1,2.261,0,2.266,2.266,0,0,1,4.523,2.335,2.3,2.3,0,0,1,2.261,4.668,2.3,2.3,0,0,1,0,2.335Zm1.587,0a.668.668,0,0,0,.673.694.7.7,0,0,0,.673-.694.674.674,0,1,0-1.347,0Z" fill="#fff"/>
</svg>
