<svg xmlns="http://www.w3.org/2000/svg" xmlns:xlink="http://www.w3.org/1999/xlink" width="571.4" height="159.063" viewBox="0 0 571.4 159.063">
  <defs>
    <linearGradient id="linear-gradient" y1="0.5" x2="1" y2="0.5" gradientUnits="objectBoundingBox">
      <stop offset="0" stop-color="#99dc65"/>
      <stop offset="1" stop-color="#67b4d9"/>
    </linearGradient>
    <radialGradient id="radial-gradient" cx="0.55" cy="0.381" r="0.632" gradientTransform="translate(-0.233) scale(1.466 1)" gradientUnits="objectBoundingBox">
      <stop offset="0.01" stop-color="#8c0053"/>
      <stop offset="0.248" stop-color="#850556"/>
      <stop offset="0.57" stop-color="#741460"/>
      <stop offset="0.938" stop-color="#582c70"/>
      <stop offset="1" stop-color="#533174"/>
    </radialGradient>
  </defs>
  <g id="logo-homecheck" transform="translate(-14 -17)">
    <g id="Group_1089" data-name="Group 1089" transform="translate(14 17)">
      <g id="Group_1085" data-name="Group 1085" transform="translate(11.045 24.426)">
        <path id="Path_2424" data-name="Path 2424" d="M285.258,200.958c-5.2-4.343-13.415-11.191-13.218-19.283a50.358,50.358,0,0,0,.793-8.9c0-24.1-17.094-41.8-40.054-46.386a86,86,0,0,1,5.191,29.526c0,.991-.024,1.976-.057,2.959-.007.237-.016.472-.026.708-.04.973-.093,1.944-.164,2.908-.006.069-.013.136-.019.2-.07.911-.159,1.817-.257,2.72-.026.227-.049.453-.077.68-.111.948-.234,1.894-.376,2.831-.018.116-.038.231-.056.348q-.2,1.278-.436,2.543c-.04.212-.078.426-.12.638q-.27,1.386-.581,2.759c-.031.14-.067.278-.1.418q-.287,1.226-.607,2.435c-.051.191-.1.384-.152.573q-.37,1.353-.779,2.688c-.047.154-.1.308-.147.462-.247.79-.508,1.578-.779,2.357-.056.164-.112.33-.17.493q-.464,1.316-.972,2.613c-.061.159-.126.317-.187.474q-.464,1.164-.959,2.311c-.056.131-.111.264-.169.395q-.56,1.28-1.163,2.535c-.075.156-.152.312-.227.469q-.563,1.156-1.155,2.291c-.047.092-.093.184-.14.274q-.658,1.241-1.353,2.458c-.085.148-.171.3-.257.443-.448.774-.906,1.543-1.377,2.3-.026.041-.051.084-.077.126q-.751,1.2-1.54,2.373c-.092.136-.184.273-.278.41q-1.594,2.344-3.335,4.569c-.1.122-.192.244-.288.365q-1.764,2.228-3.671,4.33c-.095.106-.191.211-.287.314q-1.931,2.106-4,4.074l-.277.263q-2.093,1.978-4.319,3.806c-.084.068-.167.138-.252.207q-1.127.916-2.282,1.8c-.02.015-.038.027-.058.044q-1.133.856-2.3,1.676c-.072.049-.145.1-.216.152q-1.2.836-2.419,1.631c-.04.027-.079.051-.119.076q-1.194.772-2.415,1.5c-.052.033-.1.065-.159.1q-1.26.751-2.549,1.458c-.058.031-.116.06-.172.091-.843.46-1.693.906-2.551,1.331-.029.016-.058.031-.086.045q-1.321.658-2.669,1.27c-.074.033-.147.065-.221.1-.893.4-1.791.789-2.7,1.158h0a80.892,80.892,0,0,1-30.6,5.98,114.764,114.764,0,0,0,31.021,3.184,72.97,72.97,0,0,1-1.2,12.323s4.556,4.111,30.094,4.111,29.457-4.111,29.457-4.111c-2.551-10.235,3.243-12.631,15.523-9.923,12.608,2.782,14.63-3.337,12.993-8.9s.386-5.285,2.31-7.975-3.754-6.677-3.754-6.677,6.66-2.429,4.91-4.544c-3.05-3.678.673-5.655,4.331-7.881S291.032,205.779,285.258,200.958Z" transform="translate(-155.274 -126.386)" fill="#11afe6"/>
        <path id="Path_2425" data-name="Path 2425" d="M258.923,139.684a52.364,52.364,0,0,0-26.144-13.3,86,86,0,0,1,5.191,29.526c0,.991-.024,1.976-.057,2.959-.007.237-.016.472-.026.708-.04.973-.093,1.944-.164,2.908-.006.069-.013.136-.019.2-.07.911-.159,1.817-.257,2.72-.026.227-.049.453-.077.68-.111.948-.234,1.894-.376,2.831-.018.116-.038.231-.056.348q-.2,1.278-.436,2.543c-.04.212-.078.426-.12.638q-.27,1.386-.581,2.759c-.031.14-.067.278-.1.418q-.287,1.226-.607,2.435c-.051.191-.1.384-.152.573q-.37,1.353-.779,2.688c-.047.154-.1.308-.147.462-.247.79-.508,1.578-.779,2.357-.056.164-.112.33-.17.493q-.464,1.316-.972,2.613c-.061.159-.126.317-.187.474q-.464,1.164-.959,2.311c-.056.131-.111.264-.169.395q-.56,1.28-1.163,2.535c-.075.156-.152.312-.227.469q-.563,1.156-1.155,2.291c-.047.092-.093.184-.14.274q-.658,1.241-1.353,2.458c-.085.148-.171.3-.257.443-.448.774-.906,1.543-1.377,2.3-.026.041-.051.084-.077.126q-.751,1.2-1.54,2.373c-.092.136-.184.273-.278.41q-1.594,2.344-3.335,4.569c-.1.122-.192.244-.288.365q-1.764,2.228-3.671,4.33c-.095.106-.191.211-.287.314q-1.931,2.106-4,4.074l-.277.263q-2.093,1.978-4.319,3.806c-.084.068-.167.138-.252.207q-1.127.916-2.282,1.8c-.02.015-.038.027-.058.044q-1.133.856-2.3,1.676c-.072.049-.145.1-.216.152q-1.2.836-2.419,1.631c-.04.027-.079.051-.119.076q-1.194.772-2.415,1.5c-.052.033-.1.065-.159.1q-1.26.751-2.549,1.458c-.058.031-.116.06-.172.091-.843.46-1.693.906-2.551,1.331-.029.016-.058.031-.086.045q-1.321.658-2.669,1.27c-.074.033-.147.065-.221.1-.893.4-1.791.789-2.7,1.158a80.892,80.892,0,0,1-30.6,5.98,114.764,114.764,0,0,0,31.021,3.184S279.293,235.514,258.923,139.684Z" transform="translate(-155.274 -126.386)" opacity="0.2" fill="url(#linear-gradient)" style="mix-blend-mode: overlay;isolation: isolate"/>
      </g>
      <g id="Group_1087" data-name="Group 1087" transform="translate(0 0)">
        <path id="Path_2426" data-name="Path 2426" d="M200.471,106.07a13.24,13.24,0,1,1-15.818-10.02A13.24,13.24,0,0,1,200.471,106.07Zm7.073-17.848c7.188,19.85,4.043,35.7-6.742,40.671-11.911,5.493-62.692-4.011-62.692-4.011a77.016,77.016,0,0,1,24.945,9.027c-.04.011-.081.017-.124.029.048-.007.1-.012.144-.018,22.507,13.3,27.46,35.475,28.21,49.128.047,5.139-.922,15.57-9.194,18.166-5.18,1.414-16.173,3.033-26.072-4.6,0,0,15.075,6.293,26.547,1.3-.724-.854-1.417-1.738-2.1-2.614-2.573-3.26-5.72-7.12-9.79-8.26-5.587-1.57-16.635.758-22.27-.027-3.708-.515-9.406-2.549-10.387-6.67a35.739,35.739,0,0,0,48.449,25.586,37.336,37.336,0,0,0,16.844-13.076C238.47,147.346,207.544,88.222,207.544,88.222Z" transform="translate(-138.016 -88.222)" fill="url(#radial-gradient)"/>
        <g id="Group_1086" data-name="Group 1086" transform="translate(0.094 0)" opacity="0.3" style="mix-blend-mode: overlay;isolation: isolate">
          <path id="Path_2427" data-name="Path 2427" d="M200.855,128.893c-11.911,5.493-62.692-4.011-62.692-4.011a77.016,77.016,0,0,1,24.945,9.027c-.04.011-.081.017-.124.029.048-.007.1-.011.144-.018a54.874,54.874,0,0,1,19,18.412c32.991,14.993,34.9-22.03,33.761-41.679A120.971,120.971,0,0,0,207.6,88.222C214.785,108.072,211.64,123.919,200.855,128.893Z" transform="translate(-138.163 -88.222)" fill="#fff"/>
          <path id="Path_2428" data-name="Path 2428" d="M210.866,126.109a13.241,13.241,0,1,0-15.819-10.02A13.24,13.24,0,0,0,210.866,126.109Z" transform="translate(-158.524 -92.442)" fill="#fff"/>
        </g>
      </g>
      <g id="Group_1088" data-name="Group 1088" transform="translate(5.211 52.564)">
        <path id="Path_2429" data-name="Path 2429" d="M186.923,199.056H182v-4.928a2.111,2.111,0,0,0-2.111-2.111h-6.178a2.112,2.112,0,0,0-2.112,2.111v4.928h-4.928a2.112,2.112,0,0,0-2.11,2.111v6.179a2.111,2.111,0,0,0,2.11,2.111H171.6v4.926a2.112,2.112,0,0,0,2.112,2.111h6.178A2.111,2.111,0,0,0,182,214.384v-4.926h4.926a2.112,2.112,0,0,0,2.113-2.111v-6.179A2.113,2.113,0,0,0,186.923,199.056Z" transform="translate(-152.782 -178.151)" fill="#03bbd9"/>
        <path id="Path_2430" data-name="Path 2430" d="M159.5,174.55h-2.939v-2.941a1.259,1.259,0,0,0-1.259-1.258h-3.684a1.26,1.26,0,0,0-1.26,1.258v2.941h-2.939a1.258,1.258,0,0,0-1.258,1.258V179.5a1.259,1.259,0,0,0,1.258,1.26h2.939v2.936a1.259,1.259,0,0,0,1.26,1.26H155.3a1.258,1.258,0,0,0,1.259-1.26v-2.936H159.5a1.26,1.26,0,0,0,1.26-1.26v-3.687A1.258,1.258,0,0,0,159.5,174.55Z" transform="translate(-146.158 -170.351)" fill="#03bbd9"/>
      </g>
    </g>
    <g id="Group_1094" data-name="Group 1094" transform="translate(189.005 25.008)">
      <g id="Group_1091" data-name="Group 1091" transform="translate(0 0)">
        <g id="Group_1090" data-name="Group 1090">
          <path id="Path_2431" data-name="Path 2431" d="M133.277,349.426h25.745V379.61H183.1V349.426h25.745v77.793H183.1V399.141H159.022v28.077H133.277Z" transform="translate(-133.277 -347.76)" fill="#394c6d"/>
          <path id="Path_2432" data-name="Path 2432" d="M256.533,353.661a38.513,38.513,0,0,1,15.258,14.427,39.731,39.731,0,0,1,5.493,20.752,40.518,40.518,0,0,1-5.493,20.974,38.661,38.661,0,0,1-15.258,14.595,48.438,48.438,0,0,1-43.946,0,38.628,38.628,0,0,1-15.258-14.595,40.518,40.518,0,0,1-5.493-20.974,39.943,39.943,0,0,1,5.493-20.864,38.09,38.09,0,0,1,15.258-14.37,49.124,49.124,0,0,1,43.946.056Zm-29.909,18.7a17.911,17.911,0,0,0-6.1,6.826,20.648,20.648,0,0,0-2.275,9.765,20.983,20.983,0,0,0,2.275,9.821,18.221,18.221,0,0,0,6.1,6.935,14.609,14.609,0,0,0,8.268,2.554,14.06,14.06,0,0,0,8.1-2.5,17.01,17.01,0,0,0,5.772-6.936,22.741,22.741,0,0,0,2.107-9.876,22.388,22.388,0,0,0-2.107-9.822,16.684,16.684,0,0,0-5.772-6.826,14.3,14.3,0,0,0-8.1-2.44A14.851,14.851,0,0,0,226.624,372.36Z" transform="translate(-92.402 -348.445)" fill="#394c6d"/>
          <path id="Path_2433" data-name="Path 2433" d="M256.208,349.426h27.3l19.308,40.617,19.2-40.617h27.3v77.793H326.788V384.6L311.14,419.672H294.384L278.736,384.6v42.614H256.208Z" transform="translate(-47.469 -347.76)" fill="#394c6d"/>
          <path id="Path_2434" data-name="Path 2434" d="M327.38,349.426h65.807v19.531H353.125V378.5h36.4v19.531h-36.4v9.653h41.06v19.533h-66.8Z" transform="translate(2.21 -347.76)" fill="#394c6d"/>
        </g>
      </g>
      <g id="Group_1093" data-name="Group 1093" transform="translate(0 102.934)">
        <g id="Group_1092" data-name="Group 1092">
          <path id="Path_2435" data-name="Path 2435" d="M165.032,418.7a15.916,15.916,0,0,0-14.824.47,15.054,15.054,0,0,0-5.688,5.722,16.451,16.451,0,0,0,0,16,15.294,15.294,0,0,0,5.688,5.755,15.513,15.513,0,0,0,7.964,2.109,16.733,16.733,0,0,0,6.726-1.474,19.265,19.265,0,0,0,5.991-4.082l5.288,5.891a27.688,27.688,0,0,1-8.566,5.923,24.151,24.151,0,0,1-9.9,2.175,24.517,24.517,0,0,1-12.382-3.213,23.565,23.565,0,0,1-8.835-8.733,23.853,23.853,0,0,1-3.211-12.214,23.305,23.305,0,0,1,3.277-12.182,23.6,23.6,0,0,1,8.937-8.635,25.925,25.925,0,0,1,22.385-1.136,24.17,24.17,0,0,1,8.232,5.554l-5.22,6.558A17.669,17.669,0,0,0,165.032,418.7Z" transform="translate(-133.277 -409.064)" fill="#394c6d"/>
          <path id="Path_2436" data-name="Path 2436" d="M186.524,409.419h8.969v20.012h23.356V409.419h8.969v46.849h-8.969V437.262H195.493v19.006h-8.969Z" transform="translate(-96.11 -408.816)" fill="#394c6d"/>
          <path id="Path_2437" data-name="Path 2437" d="M241.309,409.419h34.332v7.831H250.278v11.577h22.753v7.83H250.278v11.779h26.167v7.831H241.309Z" transform="translate(-57.869 -408.816)" fill="#394c6d"/>
          <path id="Path_2438" data-name="Path 2438" d="M320.6,418.7a15.916,15.916,0,0,0-14.824.47,15.053,15.053,0,0,0-5.688,5.722,16.451,16.451,0,0,0,0,16,15.293,15.293,0,0,0,5.688,5.755,15.513,15.513,0,0,0,7.964,2.109,16.734,16.734,0,0,0,6.726-1.474,19.264,19.264,0,0,0,5.99-4.082l5.286,5.891a27.668,27.668,0,0,1-8.567,5.923,24.139,24.139,0,0,1-9.9,2.175,24.515,24.515,0,0,1-12.38-3.213,23.553,23.553,0,0,1-8.835-8.733,23.854,23.854,0,0,1-3.213-12.214,23.307,23.307,0,0,1,3.279-12.182,23.592,23.592,0,0,1,8.935-8.635,25.929,25.929,0,0,1,22.387-1.136,24.171,24.171,0,0,1,8.232,5.554l-5.22,6.558A17.684,17.684,0,0,0,320.6,418.7Z" transform="translate(-24.69 -409.064)" fill="#394c6d"/>
          <path id="Path_2439" data-name="Path 2439" d="M383.917,456.268H373.143L358.42,436.19l-7.363,8.1v11.98H342.09V409.419h8.967v23.358l21.149-23.358H382.78l-18,19.809Z" transform="translate(12.478 -408.816)" fill="#394c6d"/>
        </g>
      </g>
    </g>
  </g>
</svg>
